{"glyphs":{"0":{"ha":758,"x_min":31,"x_max":728,"o":"m 274 579 q 215 410 215 497 q 283 236 215 314 q 422 158 350 158 q 512 208 475 158 q 549 335 549 257 q 517 476 549 404 q 431 600 486 547 q 265 676 350 676 l 211 671 l 196 696 q 449 818 351 818 q 542 791 492 818 q 631 717 592 764 q 728 475 728 597 q 689 328 728 401 q 575 174 656 267 q 301 -17 410 -17 q 119 86 206 -17 q 53 194 76 138 q 31 304 31 251 q 86 464 31 394 q 256 601 136 526 l 274 579 z "},"1":{"ha":482,"x_min":39,"x_max":367,"o":"m 167 -42 l 171 247 q 169 482 171 456 q 103 625 163 625 q 77 620 92 625 q 51 613 63 615 l 39 647 l 188 753 q 242 790 233 785 q 310 818 285 818 q 355 785 343 818 q 367 682 367 753 l 367 406 l 364 88 l 167 -42 z "},"2":{"ha":644,"x_min":-22,"x_max":588,"o":"m 6 -10 l -22 42 q 313 478 313 333 q 256 610 313 557 q 108 663 199 663 q 19 647 65 663 l 6 675 l 110 750 q 190 800 160 786 q 276 818 232 818 q 438 756 374 818 q 503 599 503 694 q 471 472 503 535 q 379 346 444 421 q 238 194 344 307 q 450 185 283 194 q 588 179 544 179 l 417 -22 q 334 0 381 -7 q 235 7 288 7 q 160 6 183 7 q 6 -10 136 4 z "},"3":{"ha":556,"x_min":26,"x_max":496,"o":"m 126 -82 l 99 -37 q 299 197 299 75 q 241 322 299 274 q 85 369 183 369 l 82 406 q 210 473 167 432 q 254 565 254 514 q 222 642 254 613 q 136 672 189 672 q 51 647 96 672 l 26 678 l 143 764 q 281 818 217 818 q 400 775 351 818 q 449 672 449 732 q 321 489 449 585 q 496 289 496 433 q 126 -82 496 108 z "},"4":{"ha":758,"x_min":14,"x_max":738,"o":"m 351 -81 l 369 182 q 265 174 336 179 q 174 168 194 168 q 14 260 14 168 q 108 465 14 324 q 410 819 221 635 l 451 782 q 272 563 332 661 q 211 404 211 464 q 307 332 211 332 q 340 334 326 332 q 371 339 354 336 q 372 442 371 378 q 374 531 374 506 l 556 653 l 546 349 l 738 365 l 606 197 l 543 190 l 539 108 l 540 39 l 351 -81 z "},"5":{"ha":560,"x_min":40,"x_max":640,"o":"m 129 -83 l 99 -39 q 254 78 204 21 q 304 200 304 135 q 235 340 304 272 q 40 454 167 408 l 274 833 q 374 815 318 822 q 486 808 429 808 q 572 811 549 808 q 640 825 596 814 q 561 694 583 725 q 425 615 506 615 q 225 647 369 615 l 196 601 q 492 304 492 486 q 129 -83 492 129 z "},"6":{"ha":704,"x_min":36,"x_max":650,"o":"m 274 429 q 479 543 417 543 q 594 476 538 543 q 650 324 650 410 q 557 139 650 231 q 299 -17 397 -17 q 118 76 200 -17 q 36 294 36 169 q 447 853 36 558 l 481 806 q 281 612 346 706 q 215 414 215 518 q 281 213 215 301 q 418 125 346 125 q 476 193 476 125 q 419 352 476 283 q 274 429 361 421 z "},"7":{"ha":525,"x_min":11,"x_max":588,"o":"m 51 -47 q 163 172 158 165 q 271 386 217 279 q 378 592 275 394 q 251 581 315 581 q 72 601 133 581 q 11 657 11 621 q 178 832 11 701 q 241 788 201 800 q 343 775 281 775 l 365 775 q 463 777 433 775 q 567 786 493 779 l 588 758 q 361 350 440 528 q 288 106 288 186 l 290 76 l 51 -47 z "},"8":{"ha":697,"x_min":39,"x_max":639,"o":"m 243 400 l 221 410 q 106 478 139 446 q 67 567 67 515 q 147 704 67 638 l 276 811 l 303 782 q 246 676 246 728 q 399 522 246 579 q 446 615 446 564 q 418 685 446 656 q 342 725 390 715 q 521 839 451 839 q 592 808 563 839 q 622 728 622 776 q 456 501 622 633 q 639 319 639 435 q 599 219 639 268 q 488 121 569 185 q 211 -17 308 -17 q 87 27 135 -17 q 39 143 39 71 q 90 272 39 211 q 243 400 135 325 m 301 376 q 231 243 231 314 q 265 153 231 189 q 350 117 300 117 q 426 147 396 117 q 457 222 457 178 q 301 376 457 321 z "},"9":{"ha":715,"x_min":49,"x_max":689,"o":"m 181 -83 l 147 -39 q 482 429 482 197 q 417 610 482 532 q 290 688 353 688 q 224 603 224 688 q 281 451 224 522 q 425 371 338 379 l 369 322 q 240 250 285 250 q 109 322 169 250 q 49 486 49 393 q 82 599 49 550 q 178 690 110 639 q 331 785 261 753 q 435 818 400 818 q 597 724 519 818 q 689 485 689 613 q 561 218 689 357 q 181 -83 443 90 z "}," ":{"ha":379,"x_min":0,"x_max":0,"o":""},"!":{"ha":419,"x_min":101,"x_max":379,"o":"m 379 89 l 265 8 q 234 -11 246 -6 q 207 -17 222 -17 q 140 19 172 -17 q 108 94 108 54 q 115 128 108 114 q 156 167 122 143 l 263 243 q 379 89 283 125 m 153 256 q 135 551 153 389 q 101 861 118 713 l 344 1032 q 338 806 344 918 q 326 572 332 694 q 319 369 319 449 l 153 256 z "},"\"":{"ha":479,"x_min":54,"x_max":425,"o":"m 138 578 l 110 578 l 56 890 l 54 915 q 72 972 54 951 q 124 993 90 993 q 193 918 193 993 l 192 890 l 138 578 m 368 578 l 340 578 l 286 890 q 283 915 283 907 q 303 972 283 951 q 354 993 322 993 q 425 918 425 993 l 422 890 l 368 578 z "},"#":{"ha":1068,"x_min":31,"x_max":1038,"o":"m 482 993 l 628 993 l 528 711 l 700 711 l 801 993 l 946 993 l 846 711 l 1038 711 l 988 576 l 799 576 l 739 408 l 938 408 l 889 275 l 692 275 l 592 -7 l 446 -7 l 546 275 l 374 275 l 272 -7 l 126 -7 l 226 275 l 31 275 l 81 408 l 275 408 l 335 576 l 129 576 l 179 711 l 382 711 l 482 993 m 478 578 l 417 407 l 596 407 l 656 578 l 478 578 z "},"$":{"ha":732,"x_min":35,"x_max":679,"o":"m 394 326 l 400 93 q 508 204 508 106 q 394 326 508 285 m 319 517 l 317 724 q 219 614 219 701 q 319 517 219 535 m 479 633 q 397 714 440 700 q 394 595 397 681 q 392 497 392 510 q 679 310 679 424 q 610 164 679 243 q 404 14 533 78 l 410 -90 l 311 -149 q 313 -76 311 -121 q 314 -14 314 -31 l 243 -21 q 94 15 154 -21 q 35 90 35 50 q 64 139 35 114 q 108 169 69 143 l 200 231 q 317 103 232 129 q 317 222 317 161 q 318 344 317 282 q 156 393 203 372 q 50 531 50 438 q 117 670 50 603 q 315 790 185 738 l 310 879 l 408 938 l 400 814 l 469 818 q 584 792 539 818 q 629 733 629 765 q 578 686 629 714 l 479 633 z "},"%":{"ha":1254,"x_min":56,"x_max":1192,"o":"m 190 688 l 218 661 q 194 620 204 644 q 185 567 185 596 q 235 429 185 492 q 339 367 285 367 q 407 402 382 367 q 432 501 432 438 q 382 660 432 597 q 257 724 332 724 q 227 722 242 724 q 194 715 213 721 l 169 750 q 265 801 218 785 q 351 818 311 818 q 499 753 438 818 q 561 596 561 689 q 449 357 561 461 q 253 267 350 267 q 115 331 175 267 q 56 481 56 394 q 86 592 56 547 q 190 688 117 638 m 1033 883 q 358 -64 517 190 l 232 -83 q 481 251 356 82 q 710 567 622 442 q 915 867 828 733 l 1033 883 m 821 404 l 847 378 q 815 283 815 342 q 865 147 815 210 q 968 83 914 83 q 1037 119 1011 83 q 1063 218 1063 154 q 1013 378 1063 315 q 886 440 963 440 q 856 439 871 440 q 824 432 842 438 l 800 467 q 894 517 847 500 q 981 535 940 535 q 1130 470 1068 535 q 1192 313 1192 406 q 1079 74 1192 178 q 883 -17 981 -17 q 744 47 804 -17 q 685 197 685 111 q 718 311 685 263 q 821 404 747 354 z "},"&":{"ha":1213,"x_min":144,"x_max":1256,"o":"m 958 446 q 940 321 958 365 q 876 225 922 276 q 685 46 763 99 q 504 -15 594 -15 q 385 2 450 -15 q 268 50 321 19 q 144 232 144 122 q 188 347 144 294 q 322 457 231 400 q 156 643 156 529 q 269 828 156 742 q 453 931 360 894 q 619 967 546 967 q 758 938 703 967 q 814 878 814 910 q 801 847 814 861 q 763 817 788 832 l 642 743 q 478 854 590 854 q 379 821 418 854 q 340 740 340 788 q 599 594 340 594 l 751 594 l 751 617 l 968 761 q 965 666 968 731 q 963 600 963 601 q 1114 608 1011 600 q 1246 615 1217 615 l 1256 592 l 1082 439 l 958 446 m 758 446 l 599 450 q 404 422 467 450 q 342 326 342 394 q 413 210 342 260 q 607 154 490 154 q 742 199 715 154 q 758 340 758 228 l 758 446 z "},"'":{"ha":247,"x_min":53,"x_max":193,"o":"m 138 578 l 110 578 l 56 890 q 53 915 53 907 q 72 972 53 951 q 124 993 92 993 q 193 918 193 993 l 192 890 l 138 578 z "},"(":{"ha":443,"x_min":97,"x_max":469,"o":"m 433 1158 q 305 840 346 1004 q 264 485 264 675 q 315 200 264 347 q 469 -100 365 53 l 325 -249 q 156 83 214 -97 q 97 460 97 263 q 231 1043 97 774 l 433 1158 z "},")":{"ha":443,"x_min":-26,"x_max":346,"o":"m 10 -250 q 138 69 97 -96 q 179 424 179 233 q 128 708 179 561 q -26 1008 78 856 l 119 1158 q 346 449 346 851 q 213 -135 346 135 l 10 -250 z "},"*":{"ha":694,"x_min":208,"x_max":565,"o":"m 367 668 l 249 736 q 339 825 311 764 q 275 810 293 810 q 247 815 263 810 q 208 831 232 821 l 240 956 q 342 894 282 901 q 304 1003 304 947 q 306 1019 306 1014 l 433 1019 q 406 924 406 976 q 407 900 406 908 q 501 983 438 960 l 565 869 q 536 871 556 871 q 454 846 492 871 q 553 774 518 831 l 464 686 q 400 794 451 750 q 401 776 401 782 q 367 668 401 722 z "},"+":{"ha":1157,"x_min":172,"x_max":985,"o":"m 510 828 l 647 828 l 647 482 l 985 482 l 985 347 l 647 347 l 647 0 l 510 0 l 510 347 l 172 347 l 172 482 l 510 482 l 510 828 z "},",":{"ha":379,"x_min":53,"x_max":308,"o":"m 113 -92 l 88 -58 q 127 -14 114 -33 q 140 29 140 6 q 119 82 140 54 q 53 136 97 110 l 199 243 q 308 107 308 168 q 283 40 308 71 q 211 -21 264 17 l 113 -92 z "},"-":{"ha":650,"x_min":63,"x_max":610,"o":"m 63 268 l 210 440 q 273 421 232 426 q 369 415 314 415 q 440 417 413 415 q 610 424 578 424 l 464 258 q 386 272 425 268 q 290 275 347 275 l 63 268 z "},".":{"ha":379,"x_min":53,"x_max":324,"o":"m 324 89 l 211 8 q 181 -10 194 -4 q 151 -17 167 -17 q 85 19 117 -17 q 53 94 53 54 q 60 128 53 114 q 100 167 67 143 l 207 243 q 324 89 228 125 z "},"/":{"ha":547,"x_min":4,"x_max":597,"o":"m 597 1157 q 343 504 464 832 q 124 -117 231 200 l 4 -129 q 225 393 107 81 q 486 1147 353 732 l 597 1157 z "},":":{"ha":411,"x_min":67,"x_max":338,"o":"m 338 90 l 225 10 q 203 -6 211 0 q 165 -17 185 -17 q 99 19 131 -17 q 67 96 67 56 q 114 167 67 132 l 221 244 q 338 90 242 126 m 338 560 l 225 479 q 194 460 208 467 q 165 454 181 454 q 99 490 131 454 q 67 565 67 525 q 74 599 67 585 q 114 638 81 614 l 221 714 q 338 560 242 596 z "},";":{"ha":411,"x_min":68,"x_max":339,"o":"m 128 -92 l 103 -58 q 142 -14 129 -33 q 156 29 156 6 q 134 82 156 54 q 68 136 113 110 l 214 243 q 324 107 324 168 q 299 40 324 71 q 226 -21 279 17 l 128 -92 m 339 560 l 226 479 q 196 460 210 467 q 167 454 182 454 q 100 490 132 454 q 68 565 68 525 q 75 599 68 585 q 115 638 82 614 l 222 714 q 339 560 243 596 z "},"<":{"ha":1157,"x_min":179,"x_max":978,"o":"m 978 810 l 978 661 l 372 414 l 978 167 l 978 18 l 179 347 l 179 482 l 978 810 z "},"=":{"ha":1157,"x_min":172,"x_max":985,"o":"m 172 628 l 985 628 l 985 493 l 172 493 l 172 628 m 172 336 l 985 336 l 985 201 l 172 201 l 172 336 z "},">":{"ha":1157,"x_min":179,"x_max":978,"o":"m 179 810 l 978 482 l 978 347 l 179 18 l 179 167 l 786 414 l 179 661 l 179 810 z "},"?":{"ha":665,"x_min":3,"x_max":653,"o":"m 450 89 l 336 8 q 305 -11 317 -6 q 278 -17 293 -17 q 211 19 243 -17 q 179 94 179 54 q 190 133 179 118 q 225 167 200 149 l 333 243 q 450 89 354 125 m 269 296 l 232 339 q 378 485 331 413 q 426 638 426 557 q 358 803 426 740 q 176 867 289 867 q 29 836 107 867 l 3 864 l 125 964 q 209 1015 165 997 q 306 1032 253 1032 q 552 948 451 1032 q 653 747 653 864 q 571 547 653 647 q 335 342 499 458 l 269 296 z "},"@":{"ha":1369,"x_min":90,"x_max":1281,"o":"m 758 643 q 614 515 678 643 q 555 368 575 438 q 535 246 535 299 q 621 129 535 129 q 783 294 708 129 q 826 423 811 358 q 842 531 842 488 q 758 643 842 643 m 797 217 q 597 83 715 83 q 447 145 501 83 q 392 315 392 207 q 524 599 392 475 q 733 688 619 688 q 883 564 861 688 l 917 675 l 1046 675 l 928 256 q 922 232 924 239 q 917 192 917 208 q 968 124 917 124 q 1024 140 989 124 q 1092 183 1058 156 q 1236 524 1236 306 q 1108 826 1236 711 q 776 942 981 942 q 444 840 588 942 q 263 631 326 758 q 200 349 200 504 q 343 -12 200 121 q 726 -146 486 -146 q 1151 -6 947 -146 l 1178 -40 q 726 -193 972 -193 q 489 -162 597 -193 q 303 -72 381 -131 q 145 117 200 4 q 90 363 90 229 q 229 744 90 578 q 464 925 326 861 q 760 989 601 989 q 1139 861 997 989 q 1281 519 1281 733 q 1125 154 1281 294 q 946 81 1043 81 q 838 116 879 81 q 797 217 797 151 z "},"A":{"ha":1010,"x_min":-68,"x_max":1046,"o":"m 283 383 l 429 378 l 590 383 q 440 774 479 644 q 354 568 401 685 q 283 383 303 442 m -68 -17 q 358 932 201 431 l 539 1019 l 579 1006 q 1007 140 875 140 q 1031 147 1017 140 l 1046 115 l 919 29 q 846 -8 865 -8 q 649 256 790 -8 l 425 250 l 235 254 q 197 92 208 175 l -68 -17 z "},"B":{"ha":964,"x_min":-28,"x_max":913,"o":"m 144 43 q 165 295 158 143 q 172 607 172 447 l 168 831 l -28 814 l 164 985 q 284 999 221 993 q 421 1006 347 1006 q 736 939 624 1006 q 849 763 849 872 q 747 603 849 663 q 870 506 828 564 q 913 382 913 449 q 863 250 913 313 q 723 125 821 197 q 567 24 625 53 q 432 -14 493 -14 q 144 43 379 -14 m 369 197 q 476 163 425 175 q 568 150 528 150 q 721 281 721 150 q 654 428 721 364 q 474 496 583 496 l 474 525 q 600 584 556 542 q 644 683 644 626 q 580 797 644 756 q 392 838 515 838 l 365 836 l 364 569 q 366 363 364 465 q 369 197 368 260 z "},"C":{"ha":865,"x_min":71,"x_max":850,"o":"m 850 156 q 674 28 756 72 q 539 -15 592 -15 q 418 6 483 -15 q 292 69 353 28 q 130 251 189 142 q 71 478 71 360 q 131 706 71 599 q 304 894 192 814 q 484 987 388 954 q 671 1019 581 1019 q 797 997 750 1019 q 843 942 843 974 q 736 835 843 907 l 669 790 q 482 886 594 886 q 333 816 389 886 q 276 626 276 746 q 386 324 276 457 q 538 204 449 247 q 722 161 628 161 q 836 181 778 161 l 850 156 z "},"D":{"ha":1035,"x_min":-37,"x_max":985,"o":"m 151 44 q 178 614 178 317 l 174 838 q 88 834 128 838 q -37 815 49 831 l 160 990 q 243 1001 208 999 q 335 1003 278 1003 q 817 869 640 1003 q 985 533 985 742 q 940 352 985 438 q 800 178 896 267 q 429 -17 590 -17 q 151 44 347 -17 m 374 203 q 486 174 431 185 q 590 163 542 163 q 747 224 693 163 q 801 400 801 285 q 686 706 801 586 q 375 829 567 829 q 372 653 375 760 q 369 510 369 546 q 371 334 369 404 q 374 203 372 264 z "},"E":{"ha":919,"x_min":22,"x_max":944,"o":"m 196 8 q 213 162 207 83 q 218 338 218 240 l 218 444 q 135 447 182 444 q 31 454 89 449 l 218 600 l 218 840 q 126 847 179 840 q 22 861 74 854 l 232 1004 q 367 993 294 997 q 511 989 440 989 q 647 994 563 989 q 904 1007 838 1007 q 802 910 850 953 q 721 847 754 868 q 646 830 697 833 q 488 826 594 826 l 417 826 l 417 604 q 611 612 468 604 q 800 619 754 619 q 699 511 739 550 q 636 460 660 472 q 563 444 613 447 q 414 440 513 440 l 414 178 l 596 174 q 784 176 706 174 q 944 190 863 179 l 769 0 q 626 3 692 0 q 369 13 397 13 l 196 8 z "},"F":{"ha":807,"x_min":22,"x_max":903,"o":"m 197 -32 q 203 167 197 60 q 215 386 208 274 l 215 432 l 38 446 l 215 592 l 208 822 q 117 828 164 822 q 22 842 53 838 q 128 919 83 885 q 222 994 174 954 q 348 981 281 985 q 475 976 415 976 q 687 983 583 976 q 903 1004 790 990 q 779 886 833 933 q 708 832 731 844 q 614 815 685 819 q 408 810 543 810 l 408 594 q 591 601 504 594 q 794 619 678 607 q 708 521 749 561 q 633 456 668 481 q 565 433 608 439 q 453 426 522 426 l 408 426 q 410 242 408 317 q 413 103 411 168 l 197 -32 z "},"G":{"ha":1022,"x_min":60,"x_max":982,"o":"m 608 478 l 692 538 q 761 582 735 568 q 828 600 797 600 q 935 544 888 600 q 982 410 982 488 q 932 260 982 339 q 786 107 882 181 q 631 16 710 47 q 492 -15 553 -15 q 330 26 410 -15 q 185 147 250 68 q 60 486 60 297 q 113 701 60 601 q 272 882 167 801 q 464 983 360 947 q 671 1019 568 1019 q 805 996 754 1019 q 856 939 856 972 q 803 874 856 907 q 721 829 788 864 l 668 801 q 490 901 604 901 q 331 823 394 901 q 268 618 268 744 q 382 294 268 444 q 653 136 504 136 q 755 174 718 136 q 792 278 792 213 q 743 403 792 349 q 608 478 694 458 z "},"H":{"ha":1076,"x_min":15,"x_max":1014,"o":"m 818 617 q 817 769 818 750 q 764 865 810 865 q 736 856 751 865 l 721 886 l 896 1003 q 933 1024 917 1017 q 963 1032 949 1032 q 1004 979 1004 1032 q 1011 812 1008 938 q 1014 474 1014 686 l 1011 117 l 808 -32 q 813 228 808 56 q 818 461 818 401 l 372 461 l 372 254 l 371 117 l 167 -32 q 171 207 167 44 q 175 456 175 369 l 15 453 l 15 476 l 175 606 q 114 847 175 847 q 68 832 97 847 l 51 860 l 253 1003 q 319 1032 294 1032 q 363 981 353 1032 q 374 804 374 929 l 374 783 l 374 765 l 374 749 q 373 692 374 721 q 372 635 372 664 l 372 617 l 818 617 z "},"I":{"ha":456,"x_min":51,"x_max":365,"o":"m 154 -32 q 158 207 154 97 q 165 442 161 317 q 110 860 165 860 q 68 843 93 860 l 51 872 l 192 969 q 244 1006 233 999 q 310 1033 288 1033 q 354 994 344 1033 q 364 839 364 954 l 364 713 l 364 550 l 365 110 l 154 -32 z "},"J":{"ha":463,"x_min":49,"x_max":371,"o":"m 63 -279 q 151 -60 126 -206 q 172 290 172 65 q 160 675 172 514 q 144 816 153 772 q 107 860 135 860 q 65 843 90 860 l 49 872 l 189 969 q 243 1006 215 988 q 308 1033 286 1033 q 361 819 361 1033 l 360 514 q 365 229 360 419 q 371 -58 371 39 q 93 -300 231 -162 l 63 -279 z "},"K":{"ha":963,"x_min":51,"x_max":1006,"o":"m 1006 115 l 919 57 q 860 15 889 36 q 789 -15 814 -15 q 689 78 749 -15 l 396 532 q 628 710 547 635 q 703 807 703 779 q 558 908 703 856 l 744 1032 q 915 915 915 979 q 640 638 915 849 l 592 600 q 768 343 679 471 q 885 186 843 235 q 958 132 932 132 q 988 139 969 132 l 1006 115 m 154 -32 q 158 207 154 97 q 165 442 161 317 q 110 860 165 860 q 68 843 93 860 l 51 872 l 192 969 q 244 1006 233 999 q 310 1033 288 1033 q 354 994 344 1033 q 364 839 364 954 l 364 713 l 364 550 l 365 110 l 154 -32 z "},"L":{"ha":858,"x_min":51,"x_max":860,"o":"m 860 201 l 667 0 q 404 11 542 11 q 304 10 358 11 q 163 0 250 10 q 168 215 163 61 q 174 464 174 369 q 110 853 174 853 q 63 839 89 853 l 51 868 l 192 965 q 317 1032 289 1032 q 374 946 374 1032 l 371 178 l 488 176 q 672 182 582 176 q 860 201 763 188 z "},"M":{"ha":1482,"x_min":93,"x_max":1481,"o":"m 93 -31 q 157 320 125 161 q 231 657 189 479 q 172 758 196 717 q 128 872 128 838 q 207 968 128 917 l 321 1044 q 374 859 321 974 q 533 590 426 744 q 860 301 738 301 q 952 347 903 301 q 1041 478 1001 393 q 1099 664 1081 563 q 1118 876 1118 765 l 1422 1050 l 1314 785 q 1481 115 1351 419 l 1272 -32 q 1142 503 1179 274 q 765 93 929 93 q 363 464 613 93 q 343 243 347 306 q 339 133 339 181 l 93 -31 z "},"N":{"ha":1203,"x_min":-17,"x_max":1121,"o":"m 192 -32 q 224 347 214 147 q 235 754 235 547 q 50 865 118 865 q -1 851 26 865 l -17 885 l 124 981 q 168 1008 151 1000 q 207 1021 190 1021 q 333 953 240 1021 q 582 738 436 878 q 935 367 750 576 l 936 496 q 935 679 936 646 q 896 900 929 822 l 1121 1051 q 1099 575 1108 828 q 1089 99 1089 322 l 915 -25 q 760 251 890 92 q 394 619 635 403 l 392 503 q 394 331 392 401 q 399 206 396 261 l 413 115 l 192 -32 z "},"O":{"ha":1039,"x_min":58,"x_max":994,"o":"m 336 747 q 271 554 271 660 q 297 410 271 483 q 370 272 322 336 q 476 172 418 207 q 589 136 533 136 q 730 210 678 136 q 782 415 782 283 q 697 706 782 569 q 572 836 643 792 q 418 881 501 881 q 292 857 360 881 l 269 890 q 601 1019 446 1019 q 881 893 767 1019 q 994 582 994 767 q 950 369 994 464 q 810 178 906 274 q 429 -17 613 -17 q 167 103 275 -17 q 58 392 58 222 q 119 597 58 506 q 308 775 179 688 l 336 747 z "},"P":{"ha":871,"x_min":-28,"x_max":857,"o":"m 153 -32 q 158 222 153 94 q 168 409 160 249 q 176 608 176 569 q 173 725 176 646 q 169 831 169 804 q 47 826 93 831 q -28 817 -3 819 l 153 988 q 400 1006 297 1006 q 738 929 619 1006 q 857 724 857 853 q 476 436 857 518 l 464 468 q 632 651 632 525 q 563 784 632 735 q 372 833 494 833 q 371 719 372 793 q 369 613 369 646 l 374 115 l 153 -32 z "},"Q":{"ha":1039,"x_min":58,"x_max":1099,"o":"m 336 747 q 271 554 271 660 q 297 410 271 483 q 370 272 322 336 q 476 172 418 207 q 589 136 533 136 q 730 210 678 136 q 782 415 782 283 q 697 706 782 569 q 572 836 643 792 q 418 881 501 881 q 292 857 360 881 l 269 890 q 601 1019 446 1019 q 881 895 768 1019 q 994 582 994 771 q 817 183 994 361 q 957 -19 894 47 q 1099 -107 1025 -92 l 1096 -139 q 938 -153 985 -153 q 768 -112 833 -153 q 626 39 703 -71 q 439 -17 532 -17 q 167 102 276 -17 q 58 392 58 221 q 119 597 58 506 q 308 775 179 688 l 336 747 z "},"R":{"ha":989,"x_min":-28,"x_max":1014,"o":"m 154 -32 q 172 249 167 99 q 176 568 176 400 l 172 840 l -28 829 l 144 994 q 280 1012 201 1004 q 439 1019 358 1019 q 760 956 651 1019 q 868 769 868 892 q 679 526 868 629 q 971 135 918 135 q 999 143 983 135 l 1014 113 l 911 44 q 846 5 871 18 q 796 -8 821 -8 q 639 179 747 -8 l 457 494 q 657 689 657 557 q 596 808 657 764 q 421 851 535 851 l 379 850 q 376 712 379 771 q 371 572 374 653 q 374 388 371 474 q 382 118 382 131 l 154 -32 z "},"S":{"ha":913,"x_min":94,"x_max":892,"o":"m 300 293 q 383 170 322 215 q 526 125 443 125 q 638 160 597 125 q 678 250 678 194 q 611 375 678 331 q 433 443 565 406 q 256 492 344 467 q 194 517 218 503 q 136 578 157 539 q 115 664 115 617 q 167 804 115 740 q 326 932 218 868 q 632 1019 475 1019 q 778 985 718 1019 q 831 918 831 954 q 816 890 831 903 q 767 857 801 876 l 644 790 q 468 903 585 903 q 365 867 406 903 q 325 776 325 831 q 682 581 325 676 q 892 392 892 524 q 849 269 892 335 q 724 133 807 203 q 351 -17 542 -17 q 168 27 242 -17 q 94 121 94 71 q 119 168 94 144 q 186 218 138 185 l 300 293 z "},"T":{"ha":936,"x_min":-17,"x_max":1046,"o":"m 356 -32 q 380 244 374 99 q 386 542 386 390 q 383 678 386 578 q 379 824 379 779 q 179 833 285 824 q -17 856 144 836 l 207 1018 q 500 1004 290 1018 q 660 997 604 997 q 851 1003 758 997 q 1046 1022 944 1008 l 961 939 q 907 885 933 911 q 818 833 861 842 q 599 819 753 819 l 593 618 q 597 366 593 474 q 613 142 600 258 l 356 -32 z "},"U":{"ha":1161,"x_min":56,"x_max":1206,"o":"m 301 1019 l 300 964 q 331 747 300 863 q 421 499 361 632 q 686 176 567 176 q 766 208 728 176 q 838 307 804 240 q 924 671 924 476 q 906 846 924 761 l 1206 1029 q 967 351 1143 681 q 594 -32 758 -32 q 446 38 521 -32 q 283 253 371 107 q 106 614 171 439 q 56 806 56 749 q 89 890 56 856 q 193 961 118 919 l 301 1019 z "},"V":{"ha":1068,"x_min":-26,"x_max":1144,"o":"m 496 -32 q 32 856 135 856 q -10 843 14 856 l -26 875 l 131 978 q 164 999 147 988 q 213 1014 192 1014 q 336 869 261 1014 q 499 547 426 697 q 617 281 572 397 q 713 510 678 424 q 779 697 760 629 q 804 853 804 788 l 804 876 l 1144 1044 q 689 131 689 250 q 690 99 689 108 q 694 82 694 86 l 496 -32 z "},"W":{"ha":1739,"x_min":-26,"x_max":1863,"o":"m 463 -32 q 374 206 432 67 q 218 543 310 357 q 14 868 57 868 l -14 864 l -26 899 l 113 994 q 186 1031 165 1031 q 590 293 254 1031 q 744 650 692 496 q 792 858 792 788 q 790 876 790 871 l 997 997 q 1182 635 1101 804 q 1329 294 1263 467 q 1529 886 1529 710 l 1863 1050 q 1593 576 1710 800 q 1443 261 1501 400 q 1396 121 1396 147 l 1399 97 l 1206 -32 q 1103 246 1175 78 q 906 653 1024 428 q 719 297 775 413 q 653 115 653 160 q 656 76 653 89 l 463 -32 z "},"X":{"ha":997,"x_min":-15,"x_max":988,"o":"m 0 -49 l -15 -21 q 209 241 110 118 q 390 479 308 364 q 81 853 119 853 q 38 833 61 853 l 19 863 l 169 971 q 253 1010 225 1010 q 528 654 274 1010 q 608 778 579 718 q 642 897 636 839 l 972 1043 l 988 1018 q 778 781 886 908 q 597 563 690 678 q 925 161 872 161 q 942 165 935 161 q 963 181 949 168 l 981 154 l 826 36 q 783 6 800 17 q 751 -4 767 -4 q 688 40 725 -4 q 596 171 658 75 q 457 385 467 371 q 367 240 397 301 q 338 135 338 179 q 340 103 338 114 l 0 -49 z "},"Y":{"ha":1086,"x_min":3,"x_max":1169,"o":"m 489 -32 l 493 122 q 471 325 493 257 q 426 419 457 365 q 342 547 396 472 q 51 853 124 853 q 21 843 35 853 l 3 871 l 139 964 q 182 994 160 979 q 235 1017 215 1017 q 661 461 338 1017 q 836 838 836 740 l 832 897 l 1154 1053 l 1169 1033 q 1050 867 1113 958 q 939 697 988 775 q 839 536 931 683 q 761 413 800 474 q 721 333 729 360 q 707 211 707 289 q 708 166 707 181 q 718 126 710 151 l 489 -32 z "},"Z":{"ha":836,"x_min":33,"x_max":833,"o":"m 646 -8 q 577 -15 608 -14 q 507 -17 546 -17 q 149 7 247 -17 q 33 113 33 35 q 56 193 33 154 q 118 276 71 221 q 194 363 131 292 q 319 501 299 479 q 494 692 388 576 l 556 757 q 274 740 431 740 q 106 754 157 740 q 54 811 54 768 q 100 899 54 853 l 239 1038 l 269 1019 l 265 1006 q 438 960 265 960 q 667 965 578 960 q 815 979 757 971 l 833 950 q 444 488 572 657 q 315 267 315 319 q 460 194 315 194 q 811 224 656 194 l 829 201 l 646 -8 z "},"[":{"ha":471,"x_min":117,"x_max":497,"o":"m 119 -232 q 123 22 119 -87 q 131 261 126 131 q 135 463 135 392 q 131 672 135 556 q 122 931 126 788 q 117 1157 117 1075 l 496 1153 l 454 1050 q 378 1053 428 1050 q 306 1056 328 1056 q 303 850 306 944 q 293 485 293 522 q 297 131 293 349 q 300 -128 300 -86 q 497 -118 399 -128 l 467 -224 l 119 -232 z "},"\\":{"ha":547,"x_min":-51,"x_max":542,"o":"m 61 1147 q 318 400 197 718 q 542 -129 439 82 l 424 -117 q 203 504 318 193 q -51 1157 79 836 l 61 1147 z "},"]":{"ha":471,"x_min":-26,"x_max":354,"o":"m 351 1157 q 347 881 351 1014 q 335 464 335 481 q 339 251 335 365 q 349 -1 343 138 q 354 -232 354 -140 q 138 -229 290 -232 q -26 -226 -14 -226 l 17 -124 q 93 -126 43 -124 q 165 -129 143 -129 q 168 76 165 -17 q 178 440 178 404 q 174 784 178 565 q 171 1054 171 1003 q 80 1051 125 1054 q -26 1043 35 1049 l 4 1150 q 138 1151 88 1150 q 351 1157 339 1157 z "},"^":{"ha":1389,"x_min":0,"x_max":1389,"o":"m 0 1149 l 0 1061 l 1389 1061 l 1389 1149 l 0 1149 z "},"_":{"ha":694,"x_min":0,"x_max":694,"o":"m 0 -189 l 694 -189 l 694 -328 l 0 -328 l 0 -189 z "},"`":{"ha":694,"x_min":215,"x_max":463,"o":"m 429 764 q 215 867 313 794 l 269 1003 q 463 857 363 911 l 429 764 z "},"a":{"ha":800,"x_min":13,"x_max":818,"o":"m 643 -17 q 493 229 575 153 q 279 311 406 311 q 206 295 233 311 q 179 253 179 279 q 234 175 179 208 q 364 142 289 142 q 464 167 418 142 l 483 142 q 211 -18 324 -18 q 73 30 133 -18 q 13 138 13 78 q 111 299 13 222 q 400 413 221 383 q 239 558 325 558 q 188 542 215 558 l 168 568 l 313 674 q 357 703 344 696 q 397 714 378 714 q 818 101 510 714 l 643 -17 z "},"b":{"ha":804,"x_min":-42,"x_max":775,"o":"m -42 975 l 131 1103 q 189 1142 164 1128 q 229 1157 214 1157 q 277 1119 265 1157 q 289 993 289 1081 l 286 517 q 321 236 286 318 q 468 140 361 140 q 563 178 528 140 q 599 282 599 217 q 535 488 599 399 q 386 578 472 578 l 351 574 l 343 596 l 389 628 q 563 707 501 707 q 708 626 642 707 q 775 433 775 544 q 657 183 775 313 q 347 -17 472 -17 q 246 10 296 -17 q 160 84 196 36 q 113 189 124 132 q 101 331 101 246 l 104 601 q 39 964 104 964 q -22 946 14 964 l -42 975 z "},"c":{"ha":661,"x_min":43,"x_max":626,"o":"m 603 131 l 500 51 q 417 1 456 18 q 342 -17 379 -17 q 246 8 297 -17 q 149 76 194 32 q 43 311 43 179 q 185 586 43 463 q 450 710 326 710 q 576 672 525 710 q 626 590 626 635 q 463 443 626 539 q 406 543 446 501 q 317 585 365 585 q 242 549 274 585 q 211 464 211 514 q 241 337 211 401 q 326 218 271 272 q 508 144 404 144 q 547 146 535 144 q 582 156 560 147 l 603 131 z "},"d":{"ha":793,"x_min":-26,"x_max":757,"o":"m 272 493 q 231 361 231 432 q 294 199 231 268 q 438 129 358 129 q 535 170 497 129 q 574 278 574 211 q 486 461 574 390 q 244 585 424 513 q 47 658 146 621 q -26 726 -26 689 q 29 801 -26 760 q 113 861 33 804 l 200 924 l 225 903 q 199 850 199 876 q 464 682 199 789 q 679 576 631 614 q 757 418 757 517 q 567 113 757 271 q 424 16 490 49 q 304 -17 358 -17 q 125 65 203 -17 q 47 260 47 147 q 88 388 47 335 q 211 486 124 435 l 256 511 l 272 493 z "},"e":{"ha":664,"x_min":40,"x_max":611,"o":"m 611 161 l 510 72 q 422 8 457 26 q 325 -17 375 -17 q 225 10 278 -17 q 128 88 172 38 q 40 299 40 183 q 161 563 40 439 q 436 714 311 714 q 557 672 504 714 q 610 576 610 631 q 399 368 610 499 l 308 313 l 289 343 q 404 478 404 415 q 372 540 404 511 q 299 569 340 569 q 227 535 253 569 q 201 442 201 501 q 285 244 201 333 q 468 154 369 154 q 589 189 526 154 l 611 161 z "},"f":{"ha":521,"x_min":-26,"x_max":725,"o":"m 190 -17 q 186 196 190 88 q 174 564 174 519 l -26 564 l 121 715 l 174 715 q 191 849 174 793 q 251 956 208 904 q 415 1099 325 1042 q 554 1157 506 1157 q 635 1133 596 1157 q 725 1057 675 1110 l 567 928 q 442 1021 496 1021 q 367 793 367 1021 l 371 717 l 579 725 l 456 571 l 375 567 l 375 538 q 380 378 375 468 q 403 124 385 288 l 190 -17 z "},"g":{"ha":810,"x_min":-12,"x_max":839,"o":"m 222 -18 q 200 -74 200 -46 q 238 -135 200 -110 q 340 -160 276 -160 q 517 -105 447 -160 q 588 31 588 -50 q 540 97 588 74 q 390 135 493 119 l 314 146 q 100 196 158 168 q 24 310 24 232 q 66 426 24 364 q 193 567 108 489 q 457 713 351 713 q 518 701 492 713 q 839 721 676 701 l 713 567 l 614 563 l 614 536 q 583 442 614 483 q 472 339 551 400 l 453 358 q 468 425 468 396 q 428 519 468 479 q 333 560 388 560 q 246 526 282 560 q 210 451 210 493 q 281 346 210 383 q 494 296 346 313 l 560 286 q 789 126 789 253 q 735 -12 789 61 q 581 -153 682 -86 q 365 -258 479 -221 q 161 -296 251 -296 q 34 -269 81 -296 q -12 -199 -12 -242 q 69 -101 -12 -171 l 196 7 l 222 -18 z "},"h":{"ha":872,"x_min":-53,"x_max":803,"o":"m 89 -12 q 104 375 104 156 q 33 975 104 975 q -35 947 8 975 l -53 979 l 126 1103 q 190 1143 165 1129 q 232 1157 214 1157 q 282 1101 271 1157 q 293 906 293 1044 l 293 743 q 290 503 293 642 q 286 356 286 364 q 665 714 568 714 q 771 569 739 714 q 803 108 803 425 l 621 -17 l 621 26 q 608 238 621 143 q 578 385 594 333 q 511 465 551 465 q 361 357 457 465 q 131 -17 193 167 l 89 -12 z "},"i":{"ha":418,"x_min":8,"x_max":374,"o":"m 250 988 q 374 881 304 889 l 324 842 q 265 799 292 818 q 186 765 218 765 q 74 856 118 765 l 250 988 m 136 -17 l 138 144 q 72 538 138 538 q 14 524 46 538 l 8 556 l 149 656 q 200 690 178 676 q 265 717 242 717 q 343 392 343 717 l 343 361 l 343 333 l 343 308 l 343 286 l 343 267 l 343 249 l 343 232 q 342 174 343 200 q 342 128 342 149 l 342 113 l 136 -17 z "},"j":{"ha":408,"x_min":-4,"x_max":363,"o":"m 128 -324 q 130 -91 128 -203 q 133 89 132 21 q 67 544 133 544 q 14 525 47 544 l -4 553 l 174 669 q 222 701 218 699 q 263 714 244 714 q 306 691 296 714 q 317 615 317 668 l 321 186 l 319 -262 l 128 -324 m 239 988 q 363 881 293 889 l 311 842 q 253 799 279 818 q 174 765 206 765 q 63 856 107 765 l 239 988 z "},"k":{"ha":846,"x_min":-37,"x_max":861,"o":"m 97 -17 q 101 190 97 60 q 106 375 106 321 q 38 974 106 974 q -19 956 14 974 l -37 986 l 125 1100 q 185 1142 154 1121 q 233 1158 213 1158 q 277 1132 268 1158 q 286 1039 286 1106 q 292 773 286 921 q 304 446 297 625 q 311 121 311 267 l 97 -17 m 347 349 q 511 517 511 458 q 407 589 511 567 l 575 721 q 693 686 650 714 q 736 622 736 658 q 685 536 736 585 q 538 421 643 497 q 808 140 761 140 q 824 142 815 140 q 838 146 832 144 l 861 118 l 740 19 q 701 -6 719 3 q 665 -15 683 -15 q 347 349 600 -15 z "},"l":{"ha":400,"x_min":-37,"x_max":314,"o":"m 129 1100 q 186 1140 158 1121 q 236 1158 214 1158 q 280 1132 271 1158 q 289 1039 289 1106 q 294 772 289 919 q 307 446 300 625 q 314 121 314 267 l 97 -17 q 101 190 97 60 q 106 375 106 321 q 38 974 106 974 q -19 956 14 974 l -37 986 l 129 1100 z "},"m":{"ha":1428,"x_min":1,"x_max":1363,"o":"m 139 -17 q 142 75 139 15 q 146 150 146 135 q 71 540 146 540 q 13 518 53 540 l 1 551 q 129 639 61 589 q 257 711 228 711 q 328 630 308 711 q 347 361 347 549 q 583 619 494 536 q 725 708 678 708 q 838 357 838 708 q 1219 714 1118 714 q 1290 653 1267 714 q 1331 449 1314 592 q 1363 108 1339 381 l 1174 -17 q 1057 467 1174 467 q 704 36 918 467 l 671 38 q 647 351 671 253 q 564 450 622 450 q 190 -17 406 450 l 139 -17 z "},"n":{"ha":926,"x_min":-7,"x_max":865,"o":"m 151 -17 q 67 536 151 536 q 10 515 43 536 l -7 547 q 254 713 219 713 q 326 631 306 713 q 347 371 347 549 q 706 714 625 714 q 781 653 754 714 q 826 450 807 592 q 865 111 839 360 l 676 -17 q 560 447 638 447 q 396 331 490 447 q 197 -17 292 203 l 151 -17 z "},"o":{"ha":722,"x_min":33,"x_max":688,"o":"m 256 519 q 219 393 219 461 q 281 217 219 296 q 417 139 343 139 q 492 169 465 139 q 518 258 518 200 q 497 370 518 310 q 436 479 475 431 q 249 576 360 576 q 174 567 211 576 l 165 593 q 307 683 243 653 q 426 714 371 714 q 607 622 526 714 q 688 410 688 529 q 564 149 688 279 q 290 -14 410 -14 q 113 74 193 -14 q 33 272 33 163 q 83 410 33 347 q 233 539 125 461 l 256 519 z "},"p":{"ha":829,"x_min":0,"x_max":792,"o":"m 147 -324 l 149 -114 q 78 531 149 531 q 17 507 57 531 l 0 539 l 165 656 q 281 715 249 715 q 326 677 314 715 q 339 557 339 639 q 596 714 538 714 q 699 660 657 714 q 767 538 742 607 q 792 399 792 468 q 706 198 792 282 q 432 44 619 114 l 417 85 q 547 168 507 122 q 588 288 588 214 q 542 474 588 397 q 435 551 496 551 q 338 385 338 551 l 338 299 l 343 -264 l 147 -324 z "},"q":{"ha":797,"x_min":38,"x_max":718,"o":"m 494 -322 q 502 168 494 -28 q 525 507 510 364 q 342 550 421 550 q 258 524 283 550 q 233 433 233 497 q 303 222 233 314 q 438 136 368 136 l 472 140 l 485 113 l 390 44 q 290 -3 326 -3 q 125 83 206 -3 q 38 294 38 178 q 72 415 38 356 q 176 542 106 475 q 345 669 264 624 q 479 714 426 714 q 577 701 518 714 q 718 663 636 689 q 714 489 718 575 q 701 206 701 229 q 714 -256 701 -161 l 494 -322 z "},"r":{"ha":676,"x_min":0,"x_max":656,"o":"m 143 -17 l 144 39 q 75 538 144 538 q 17 518 56 538 l 0 553 l 175 675 q 267 719 239 719 q 314 678 303 719 q 325 533 325 636 q 550 717 486 717 q 656 556 615 717 l 481 415 q 404 525 456 525 q 344 469 356 525 q 332 268 332 413 l 332 242 l 335 101 l 143 -17 z "},"s":{"ha":604,"x_min":29,"x_max":569,"o":"m 197 265 l 196 251 q 237 160 196 197 q 342 124 278 124 q 414 172 414 124 q 354 253 414 222 q 199 301 317 272 q 81 349 115 322 q 40 432 40 379 q 222 633 40 511 q 318 692 285 676 q 403 714 364 714 q 509 683 463 714 q 556 614 556 653 q 514 556 556 585 l 400 475 q 358 546 400 515 q 263 576 315 576 q 210 546 210 576 q 375 433 210 475 q 514 389 482 407 q 569 290 569 357 q 533 192 569 238 q 431 97 508 160 q 346 33 374 53 q 203 -17 271 -17 q 82 26 135 -17 q 29 114 29 68 q 56 171 29 147 q 94 200 69 183 l 197 265 z "},"t":{"ha":518,"x_min":-19,"x_max":564,"o":"m 358 685 l 443 683 l 564 686 l 407 533 l 349 535 q 346 445 349 507 q 343 382 343 383 q 413 129 343 129 q 449 142 425 129 l 468 107 l 336 24 q 243 -17 272 -17 q 143 247 143 -17 q 150 433 143 288 q 153 539 153 492 l -19 547 l 121 686 l 161 685 l 167 769 l 375 901 l 358 685 z "},"u":{"ha":890,"x_min":-3,"x_max":819,"o":"m 603 -28 q 601 169 603 74 q 599 360 600 265 q 239 -15 332 -15 q 158 90 178 -15 q 138 249 154 110 q 67 553 101 553 q 8 536 44 553 l -3 568 l 172 675 q 215 701 210 699 q 249 711 235 711 q 296 638 289 711 q 308 513 303 565 q 325 351 324 358 q 386 250 340 250 q 540 385 444 250 q 600 576 600 468 l 814 721 l 808 556 q 811 381 808 463 q 819 119 819 135 l 603 -28 z "},"v":{"ha":824,"x_min":-10,"x_max":832,"o":"m 357 -17 q 43 558 149 558 q 4 549 25 558 l -10 578 l 128 672 q 172 700 156 692 q 204 708 189 708 q 489 224 303 708 q 593 381 558 321 q 628 472 628 440 q 464 568 628 544 l 657 714 q 832 613 832 669 q 779 515 832 592 q 632 311 706 413 q 406 -17 507 136 l 357 -17 z "},"w":{"ha":1382,"x_min":-10,"x_max":1365,"o":"m 318 -17 q 42 557 153 557 q 4 547 25 557 l -10 578 l 107 654 q 157 686 146 679 q 218 710 196 710 q 450 307 296 710 q 744 675 683 675 q 1035 221 836 675 q 1121 361 1096 313 q 1153 458 1153 422 q 1119 526 1153 501 q 1004 572 1085 551 l 1175 711 q 1365 603 1365 663 q 1314 513 1365 586 q 1171 311 1242 411 q 950 -17 1051 142 l 904 -17 q 650 425 739 425 q 363 -17 528 425 l 318 -17 z "},"x":{"ha":749,"x_min":6,"x_max":751,"o":"m 324 274 q 226 167 226 199 q 338 100 226 124 l 182 -26 q 6 67 6 15 q 22 100 6 82 q 69 142 39 118 l 294 315 l 268 354 q 81 553 131 553 q 55 547 71 553 q 28 538 39 542 l 13 561 l 149 658 q 199 692 179 681 q 231 703 218 703 q 310 633 261 703 q 381 532 344 582 l 449 436 q 532 532 532 499 q 436 610 532 571 l 594 719 q 735 615 735 661 q 726 595 735 604 q 697 568 718 586 l 478 392 l 583 240 q 686 142 650 142 q 732 156 700 142 l 751 118 l 647 42 q 610 14 628 28 q 554 -8 579 -8 q 514 9 532 -8 q 465 69 496 26 l 324 274 z "},"y":{"ha":881,"x_min":-7,"x_max":788,"o":"m 576 -324 q 581 -137 576 -246 q 590 185 590 115 l 586 313 q 289 -14 350 -14 q 204 81 229 -14 q 172 232 196 113 q 60 553 108 553 q 13 535 42 553 l -7 567 l 146 667 q 203 701 179 689 q 240 714 226 714 q 299 643 283 714 q 317 536 301 629 q 408 253 363 253 q 722 697 525 253 l 779 697 l 776 397 q 779 197 776 317 q 785 -46 782 76 q 788 -264 788 -168 l 576 -324 z "},"z":{"ha":663,"x_min":44,"x_max":642,"o":"m 451 -4 q 395 -12 429 -8 q 343 -17 361 -17 q 56 82 56 -17 q 92 165 56 113 q 197 292 129 217 q 372 475 242 339 l 301 474 q 44 540 44 474 q 240 721 44 585 l 268 706 q 261 682 261 694 q 356 654 261 654 q 453 658 400 654 q 593 675 507 663 l 610 639 q 429 442 436 450 q 314 302 353 357 q 275 218 275 247 q 389 169 275 169 q 642 196 504 169 l 451 -4 z "},"{":{"ha":694,"x_min":121,"x_max":578,"o":"m 578 1028 l 578 986 q 464 948 492 986 q 436 807 436 910 l 436 717 q 408 522 436 576 q 267 431 374 456 q 407 342 372 407 q 436 146 436 286 l 436 54 q 463 -87 436 -49 q 578 -125 490 -125 l 578 -165 q 360 -117 417 -165 q 303 69 303 -68 l 303 200 q 267 353 303 311 q 121 406 231 396 l 121 457 q 266 510 229 467 q 303 663 303 553 l 303 793 q 360 978 303 929 q 578 1028 418 1028 z "},"|":{"ha":694,"x_min":278,"x_max":418,"o":"m 278 1061 l 418 1061 l 418 -328 l 278 -328 l 278 1061 z "},"}":{"ha":694,"x_min":117,"x_max":575,"o":"m 117 1028 q 335 978 278 1028 q 393 793 393 929 l 393 663 q 429 509 393 551 q 575 457 465 467 l 575 406 q 430 353 467 396 q 393 200 393 310 l 393 69 q 335 -115 393 -65 q 117 -165 276 -165 l 117 -125 q 231 -87 203 -125 q 258 54 258 -49 l 258 146 q 286 340 258 288 q 428 431 321 407 q 290 517 321 456 q 258 717 258 578 l 258 807 q 232 944 258 908 q 117 986 201 986 l 117 1028 z "},"~":{"ha":1157,"x_min":121,"x_max":1038,"o":"m 1038 544 l 1038 394 q 906 325 969 349 q 781 301 843 301 q 652 323 718 301 q 518 368 586 344 q 382 390 443 390 q 260 365 321 390 q 121 283 199 339 l 121 433 q 383 531 265 531 q 492 518 439 531 q 583 490 519 511 q 706 450 700 451 q 783 440 746 440 q 905 466 843 440 q 1038 544 967 492 z "},"‚":{"ha":379,"x_min":107,"x_max":344,"o":"m 139 -76 l 114 -33 q 178 49 178 3 q 107 156 178 94 l 256 243 q 344 101 344 157 q 239 -21 344 39 l 139 -76 z "},"ƒ":{"ha":646,"x_min":-182,"x_max":811,"o":"m 811 808 l 653 679 q 526 772 582 772 q 443 547 478 772 q 546 551 476 547 q 654 556 615 556 l 524 435 l 421 431 l 388 247 q 349 72 361 107 q 294 -19 329 22 q 238 -75 275 -42 q 126 -165 188 -119 q -11 -221 51 -221 q -92 -197 -53 -221 q -182 -121 -132 -174 l -24 8 q 99 -85 49 -85 q 154 -29 135 -85 q 188 140 167 7 q 235 431 217 326 l 40 431 l 188 546 l 254 546 q 369 744 281 664 q 527 867 457 825 q 639 908 597 908 q 811 808 715 908 z "},"„":{"ha":650,"x_min":107,"x_max":614,"o":"m 139 -76 l 114 -33 q 178 49 178 3 q 107 156 178 94 l 256 243 q 344 101 344 157 q 239 -21 344 39 l 139 -76 m 408 -76 l 385 -33 q 447 49 447 3 q 376 156 447 94 l 525 243 q 614 101 614 157 q 510 -21 614 38 l 408 -76 z "},"…":{"ha":1389,"x_min":94,"x_max":1292,"o":"m 365 89 l 253 8 q 222 -10 236 -4 q 193 -17 208 -17 q 126 19 158 -17 q 94 94 94 54 q 101 128 94 114 q 142 167 108 143 l 249 243 q 365 89 269 125 m 828 89 l 715 8 q 685 -10 699 -4 q 656 -17 671 -17 q 589 19 621 -17 q 557 94 557 54 q 564 128 557 114 q 604 167 571 143 l 711 243 q 828 89 732 125 m 1292 89 l 1179 8 q 1149 -10 1163 -4 q 1119 -17 1135 -17 q 1053 19 1085 -17 q 1021 94 1021 54 q 1028 128 1021 114 q 1068 167 1035 143 l 1175 243 q 1292 89 1196 125 z "},"†":{"ha":694,"x_min":14,"x_max":710,"o":"m 274 -104 q 277 94 274 -25 q 285 367 281 214 q 290 599 290 519 q 14 564 124 599 l 121 719 q 199 711 164 713 q 290 710 235 710 q 288 818 290 786 q 279 914 286 850 l 467 1049 q 443 885 453 975 q 433 710 433 796 q 585 717 524 710 q 710 744 647 725 l 601 589 q 524 597 558 596 q 433 599 489 599 q 440 295 433 435 q 465 28 447 156 l 274 -104 z "},"‡":{"ha":694,"x_min":14,"x_max":710,"o":"m 290 599 q 14 564 124 599 l 121 719 q 199 711 164 713 q 290 710 235 710 q 288 818 290 786 q 279 914 286 850 l 467 1049 q 443 885 453 975 q 433 710 433 796 q 585 717 524 710 q 710 744 647 725 l 601 589 q 524 597 558 596 q 433 599 489 599 l 431 456 l 432 344 q 585 352 522 344 q 710 379 647 360 l 601 224 q 520 232 567 229 q 432 235 474 235 q 434 125 432 157 q 443 29 436 93 l 256 -104 q 280 58 271 -22 q 289 233 289 139 q 14 199 124 233 l 121 354 q 199 347 164 349 q 289 344 233 344 q 289 467 289 404 q 290 599 289 531 z "},"ˆ":{"ha":694,"x_min":176,"x_max":554,"o":"m 247 768 l 176 828 q 276 908 236 867 q 338 996 315 949 l 404 993 l 478 999 l 478 968 q 497 903 478 933 q 554 839 513 878 l 494 764 q 432 821 456 789 q 394 908 408 853 q 247 768 346 826 z "},"‰":{"ha":1814,"x_min":56,"x_max":1756,"o":"m 190 688 l 218 661 q 194 620 204 644 q 185 567 185 596 q 235 429 185 492 q 339 367 285 367 q 407 402 382 367 q 432 501 432 438 q 382 660 432 597 q 257 724 332 724 q 227 722 242 724 q 194 715 213 721 l 169 750 q 265 801 218 785 q 351 818 311 818 q 499 753 438 818 q 561 596 561 689 q 449 357 561 461 q 253 267 350 267 q 115 331 175 267 q 56 481 56 394 q 86 592 56 547 q 190 688 117 638 m 1033 883 q 358 -64 517 190 l 232 -83 q 481 251 356 82 q 710 567 622 442 q 915 867 828 733 l 1033 883 m 821 404 l 847 378 q 815 283 815 342 q 865 147 815 210 q 968 83 914 83 q 1037 119 1011 83 q 1063 218 1063 154 q 1013 378 1063 315 q 886 440 963 440 q 856 439 871 440 q 824 432 842 438 l 800 467 q 894 517 847 500 q 981 535 940 535 q 1130 470 1068 535 q 1192 313 1192 406 q 1079 74 1192 178 q 883 -17 981 -17 q 744 47 804 -17 q 685 197 685 111 q 718 311 685 263 q 821 404 747 354 m 1385 404 l 1411 378 q 1379 283 1379 342 q 1428 147 1379 210 q 1532 83 1478 83 q 1601 119 1575 83 q 1626 218 1626 154 q 1576 378 1626 315 q 1450 440 1526 440 q 1420 439 1435 440 q 1388 432 1406 438 l 1364 467 q 1458 517 1411 500 q 1544 535 1504 535 q 1694 470 1632 535 q 1756 313 1756 406 q 1643 74 1756 178 q 1447 -17 1544 -17 q 1308 47 1368 -17 q 1249 197 1249 111 q 1282 311 1249 263 q 1385 404 1311 354 z "},"Š":{"ha":913,"x_min":94,"x_max":892,"o":"m 300 293 q 383 170 322 215 q 526 125 443 125 q 638 160 597 125 q 678 250 678 194 q 611 375 678 331 q 433 443 565 406 q 256 492 344 467 q 194 517 218 503 q 136 578 157 539 q 115 664 115 617 q 167 804 115 740 q 326 932 218 868 q 632 1019 475 1019 q 778 985 718 1019 q 831 918 831 954 q 816 890 831 903 q 767 857 801 876 l 644 790 q 468 903 585 903 q 365 867 406 903 q 325 776 325 831 q 682 581 325 676 q 892 392 892 524 q 849 269 892 335 q 724 133 807 203 q 351 -17 542 -17 q 168 27 242 -17 q 94 121 94 71 q 119 168 94 144 q 186 218 138 185 l 300 293 m 642 1300 l 711 1240 q 613 1160 654 1203 q 551 1072 572 1118 l 483 1075 l 411 1069 l 411 1100 q 394 1163 411 1135 q 335 1229 376 1190 l 394 1304 q 455 1247 431 1281 q 493 1160 479 1214 q 554 1235 519 1203 q 642 1300 589 1268 z "},"‹":{"ha":358,"x_min":39,"x_max":317,"o":"m 161 139 q 71 247 97 207 q 39 332 39 296 q 285 575 39 394 l 317 533 q 200 385 200 433 q 307 225 200 339 l 161 139 z "},"Œ":{"ha":1381,"x_min":58,"x_max":1406,"o":"m 875 440 l 875 178 l 1058 174 q 1245 177 1167 174 q 1406 190 1324 181 l 1231 0 q 1088 3 1153 0 q 831 13 858 13 l 657 8 l 664 58 q 429 -17 539 -17 q 167 103 275 -17 q 58 392 58 222 q 119 597 58 506 q 308 775 179 688 l 336 747 q 271 554 271 660 q 297 410 271 485 q 369 270 322 335 q 477 170 417 206 q 596 135 538 135 q 674 158 644 135 l 674 567 q 668 699 674 656 q 635 785 663 742 q 551 854 607 828 q 417 881 494 881 q 292 857 358 881 l 269 890 q 590 1019 450 1019 q 767 998 665 1007 q 986 989 868 989 q 1113 994 1032 989 q 1365 1007 1294 1007 q 1263 910 1311 953 q 1182 847 1215 868 q 1107 830 1158 833 q 949 826 1056 826 l 878 826 l 878 604 q 1072 612 929 604 q 1261 619 1215 619 q 1160 511 1200 550 q 1097 460 1121 472 q 1024 444 1074 447 q 875 440 974 440 z "},"‘":{"ha":379,"x_min":35,"x_max":274,"o":"m 242 1032 l 265 989 q 201 907 201 953 q 274 801 201 863 l 125 713 q 57 791 79 757 q 35 854 35 825 q 140 976 35 917 l 242 1032 z "},"’":{"ha":379,"x_min":107,"x_max":344,"o":"m 139 713 l 114 756 q 178 838 178 792 q 107 943 178 882 l 256 1032 q 344 890 344 946 q 239 768 344 828 l 139 713 z "},"“":{"ha":650,"x_min":35,"x_max":543,"o":"m 511 1032 l 535 989 q 472 907 472 953 q 543 801 472 863 l 394 713 q 306 854 306 799 q 410 976 306 918 l 511 1032 m 242 1032 l 265 989 q 201 907 201 953 q 274 801 201 863 l 125 713 q 57 791 79 757 q 35 854 35 825 q 140 976 35 917 l 242 1032 z "},"”":{"ha":650,"x_min":107,"x_max":614,"o":"m 408 713 l 385 756 q 447 838 447 792 q 376 943 447 882 l 525 1032 q 614 890 614 946 q 510 768 614 826 l 408 713 m 139 713 l 114 756 q 178 838 178 792 q 107 943 178 882 l 256 1032 q 344 890 344 946 q 239 768 344 828 l 139 713 z "},"•":{"ha":819,"x_min":208,"x_max":610,"o":"m 208 517 q 267 658 208 600 q 410 717 325 717 q 551 658 493 717 q 610 517 610 600 q 551 375 610 435 q 408 315 493 315 q 267 374 325 315 q 208 517 208 432 z "},"–":{"ha":694,"x_min":0,"x_max":694,"o":"m 0 296 l 0 403 l 694 403 l 694 296 l 0 296 z "},"—":{"ha":1389,"x_min":0,"x_max":1389,"o":"m 0 403 l 1389 403 l 1389 296 l 0 296 l 0 403 z "},"˜":{"ha":694,"x_min":119,"x_max":579,"o":"m 194 793 l 119 875 q 274 968 221 968 q 338 943 297 968 q 403 918 378 918 q 517 969 444 918 l 579 892 q 421 792 496 792 q 342 821 396 792 q 294 836 313 836 q 238 818 271 836 q 194 793 215 806 z "},"™":{"ha":1142,"x_min":153,"x_max":968,"o":"m 161 986 l 467 986 l 475 856 l 453 856 q 360 958 443 958 l 360 674 q 383 639 360 643 l 404 636 l 404 614 l 224 614 l 224 636 l 244 639 q 268 674 268 643 l 268 958 q 203 934 225 958 q 175 856 181 910 l 153 856 l 161 986 m 514 986 l 657 986 l 746 736 l 833 986 l 968 986 l 968 968 l 950 965 q 925 931 925 961 l 925 674 q 950 639 925 643 l 968 636 l 968 614 l 796 614 l 796 636 l 817 639 q 842 674 842 643 l 842 921 l 736 613 l 711 613 l 599 926 l 599 674 q 624 639 599 643 l 647 636 l 647 614 l 514 614 l 514 636 l 538 639 q 563 674 563 643 l 563 926 q 538 961 563 957 l 514 964 l 514 986 z "},"š":{"ha":604,"x_min":29,"x_max":569,"o":"m 197 265 l 196 251 q 237 160 196 197 q 342 124 278 124 q 414 172 414 124 q 354 253 414 222 q 199 301 317 272 q 81 349 115 322 q 40 432 40 379 q 222 633 40 511 q 318 692 285 676 q 403 714 364 714 q 509 683 463 714 q 556 614 556 653 q 514 556 556 585 l 400 475 q 358 546 400 515 q 263 576 315 576 q 210 546 210 576 q 375 433 210 475 q 514 389 482 407 q 569 290 569 357 q 533 192 569 238 q 431 97 508 160 q 346 33 374 53 q 203 -17 271 -17 q 82 26 135 -17 q 29 114 29 68 q 56 171 29 147 q 94 200 69 183 l 197 265 m 488 994 l 557 935 q 459 855 500 897 q 397 767 418 813 l 329 769 l 257 764 l 257 794 q 240 857 257 829 q 181 924 222 885 l 240 999 q 301 942 276 975 q 339 854 325 908 q 400 930 365 897 q 488 994 435 963 z "},"›":{"ha":358,"x_min":42,"x_max":319,"o":"m 197 575 q 288 467 261 507 q 319 382 319 418 q 74 139 319 319 l 42 181 q 158 329 158 281 q 51 489 158 375 l 197 575 z "},"œ":{"ha":1142,"x_min":33,"x_max":1088,"o":"m 643 567 q 914 714 789 714 q 1035 672 982 714 q 1088 576 1088 631 q 876 368 1088 499 l 786 313 l 767 343 q 882 478 882 415 q 850 540 882 511 q 776 569 818 569 q 704 536 731 569 q 678 442 678 503 q 763 243 678 332 q 946 154 847 154 q 1067 189 1004 154 l 1088 161 l 986 72 q 899 8 935 28 q 803 -17 853 -17 q 677 26 743 -17 q 561 147 611 69 q 290 -14 408 -14 q 113 74 193 -14 q 33 272 33 163 q 83 410 33 347 q 233 539 125 461 l 256 519 q 219 393 219 461 q 281 217 219 296 q 417 139 343 139 q 492 169 465 139 q 518 258 518 200 q 497 370 518 310 q 436 479 475 431 q 249 576 360 576 q 174 567 211 576 l 165 593 q 307 683 243 653 q 426 714 371 714 q 548 676 490 714 q 643 567 606 638 z "},"Ÿ":{"ha":1086,"x_min":3,"x_max":1169,"o":"m 489 -32 l 493 122 q 471 325 493 257 q 426 419 457 365 q 342 547 396 472 q 51 853 124 853 q 21 843 35 853 l 3 871 l 139 964 q 182 994 160 979 q 235 1017 215 1017 q 661 461 338 1017 q 836 838 836 740 l 832 897 l 1154 1053 l 1169 1033 q 1050 867 1113 958 q 939 697 988 775 q 839 536 931 683 q 761 413 800 474 q 721 333 729 360 q 707 211 707 289 q 708 166 707 181 q 718 126 710 151 l 489 -32 m 457 1282 q 560 1190 493 1218 l 501 1143 q 401 1092 438 1092 q 304 1169 338 1092 l 457 1282 m 746 1282 q 849 1190 782 1218 l 790 1143 q 690 1092 726 1092 q 594 1169 628 1092 l 746 1282 z "}," ":{"ha":694,"x_min":0,"x_max":0,"o":""},"¡":{"ha":419,"x_min":86,"x_max":364,"o":"m 313 760 q 330 465 313 626 q 364 154 347 303 l 121 -17 q 126 203 121 88 q 138 449 132 319 q 144 646 144 579 l 313 760 m 86 926 l 200 1007 q 224 1024 210 1014 q 258 1033 239 1033 q 325 997 293 1033 q 357 921 357 961 q 310 850 357 885 l 203 772 q 86 926 182 892 z "},"¢":{"ha":601,"x_min":60,"x_max":590,"o":"m 447 496 q 376 600 433 568 l 372 410 l 375 240 q 481 217 426 217 q 549 228 513 217 l 568 204 l 475 132 q 426 97 449 111 q 378 78 403 83 l 382 -18 l 304 -78 l 308 72 q 130 182 200 96 q 60 368 60 268 q 313 703 60 563 l 306 804 l 385 864 l 378 725 l 435 731 q 544 696 499 731 q 590 621 590 661 q 447 496 590 564 m 318 271 l 319 408 l 315 617 q 240 586 268 617 q 213 508 213 556 q 240 384 213 447 q 318 271 268 321 z "},"£":{"ha":742,"x_min":-17,"x_max":729,"o":"m 174 344 q 58 342 129 344 q -17 340 -14 340 l 117 486 l 169 482 q 231 650 169 585 q 394 779 303 729 q 558 829 485 829 q 680 801 631 829 q 729 738 729 772 q 669 664 729 694 l 557 607 q 519 694 547 663 q 456 726 490 726 q 378 667 401 726 q 356 478 356 607 l 450 478 q 553 485 510 482 q 647 488 597 488 l 503 324 q 356 343 449 343 l 356 149 q 394 146 375 146 q 433 146 414 146 q 565 151 490 146 q 728 169 639 157 l 558 -10 q 456 -5 524 -10 q 357 0 388 0 q 269 -2 315 0 q 164 -10 222 -4 q 169 177 164 53 q 174 344 174 301 z "},"¤":{"ha":842,"x_min":46,"x_max":797,"o":"m 117 975 l 256 838 q 331 877 292 864 q 421 890 371 890 q 589 838 515 890 l 726 975 l 797 903 l 660 764 q 711 600 711 692 q 660 436 711 510 l 797 297 l 726 226 l 589 364 q 512 324 553 338 q 422 311 471 311 q 256 364 326 311 l 117 226 l 46 297 l 183 436 q 132 600 132 508 q 183 764 132 692 l 46 903 l 117 975 m 422 788 q 290 732 346 788 q 235 600 235 676 q 289 468 235 522 q 422 414 343 414 q 554 468 499 414 q 610 600 610 522 q 555 733 610 678 q 422 788 500 788 z "},"¥":{"ha":772,"x_min":-19,"x_max":797,"o":"m 321 -83 l 324 22 q 308 217 324 178 q 176 211 269 217 q 28 206 83 206 l 47 297 q 169 294 81 297 q 278 292 258 292 q 224 386 251 344 l 28 379 l 44 468 l 176 463 q 14 651 53 651 q -7 643 4 651 l -19 665 l 81 751 q 154 794 131 794 q 443 329 232 794 q 556 631 556 572 l 551 688 l 786 817 l 797 800 q 699 636 749 725 q 603 463 664 575 l 758 468 l 726 379 l 564 386 l 515 292 q 632 294 565 292 q 742 297 699 296 l 721 206 q 597 211 678 206 q 482 217 517 217 q 474 143 474 192 q 474 94 474 117 q 481 47 475 71 l 321 -83 z "},"¦":{"ha":694,"x_min":278,"x_max":418,"o":"m 278 971 l 418 971 l 418 457 l 278 457 l 278 971 m 278 276 l 418 276 l 418 -237 l 278 -237 l 278 276 z "},"§":{"ha":758,"x_min":42,"x_max":717,"o":"m 514 339 q 564 424 564 371 q 242 589 564 511 q 208 551 221 574 q 194 504 194 529 q 514 339 194 417 m 242 157 q 407 -8 278 -8 q 483 17 456 -8 q 511 83 511 42 q 461 179 511 143 q 322 235 421 207 q 158 282 182 274 q 42 414 42 325 q 185 611 42 496 q 116 665 140 629 q 92 746 92 700 q 235 944 92 851 q 469 1019 350 1019 q 594 994 543 1019 q 646 942 646 969 q 581 885 646 919 l 490 836 q 456 906 490 876 q 371 935 421 935 q 289 904 321 935 q 257 825 257 874 q 304 743 257 774 q 438 693 342 718 q 601 646 579 654 q 717 514 717 603 q 576 319 717 432 q 668 174 668 268 q 586 10 668 85 q 294 -122 442 -122 q 147 -78 203 -122 q 92 21 92 -35 q 124 81 92 56 q 169 111 133 88 l 242 157 z "},"¨":{"ha":694,"x_min":108,"x_max":653,"o":"m 261 976 q 364 885 297 913 l 306 838 q 206 786 242 786 q 108 864 142 786 l 261 976 m 550 976 q 653 885 586 913 l 594 838 q 494 786 531 786 q 399 864 432 786 l 550 976 z "},"©":{"ha":1142,"x_min":75,"x_max":1068,"o":"m 572 958 q 760 921 671 958 q 919 813 849 883 q 1029 651 990 743 q 1068 460 1068 560 q 921 108 1068 258 q 571 -36 779 -36 q 222 109 368 -36 q 75 460 75 254 q 221 813 75 667 q 572 958 367 958 m 572 888 q 271 761 394 888 q 147 460 147 635 q 271 158 147 282 q 571 35 394 35 q 872 160 749 35 q 994 460 994 286 q 963 625 994 546 q 872 763 931 704 q 733 854 813 821 q 572 888 654 888 m 764 747 l 794 747 l 796 526 l 763 526 q 694 663 742 615 q 583 711 647 711 q 425 464 425 711 q 592 208 425 208 q 776 326 700 208 l 807 307 q 571 161 721 161 q 361 244 444 161 q 278 450 278 328 q 360 665 278 581 q 567 750 442 750 q 649 735 611 750 q 725 706 688 721 q 764 747 756 706 z "},"ª":{"ha":600,"x_min":10,"x_max":614,"o":"m 482 518 q 369 690 431 638 q 210 747 304 747 q 135 706 135 747 q 176 651 135 675 q 274 628 217 628 q 311 631 296 628 q 349 646 326 635 l 363 628 q 158 517 243 517 q 55 550 100 517 q 10 625 10 583 q 83 739 10 686 q 300 818 164 797 q 241 894 272 868 q 179 919 210 919 q 140 908 163 919 l 126 926 l 235 1000 q 269 1020 253 1013 q 299 1028 286 1028 q 614 600 383 1028 l 482 518 z "},"«":{"ha":650,"x_min":39,"x_max":608,"o":"m 453 139 q 363 247 389 207 q 331 332 331 296 q 576 575 331 394 l 608 533 q 490 385 490 432 q 518 321 490 361 q 599 225 546 281 l 453 139 m 161 139 q 71 247 97 207 q 39 332 39 296 q 285 575 39 394 l 317 533 q 200 385 200 433 q 307 225 200 339 l 161 139 z "},"¬":{"ha":1157,"x_min":172,"x_max":985,"o":"m 172 586 l 985 586 l 985 246 l 850 246 l 850 453 l 172 453 l 172 586 z "},"­":{"ha":1157,"x_min":172,"x_max":985,"o":"m 172 483 l 985 483 l 985 346 l 172 346 l 172 483 z "},"®":{"ha":1142,"x_min":75,"x_max":1067,"o":"m 572 958 q 765 918 671 958 q 929 806 858 878 q 1067 451 1067 664 q 1026 265 1067 357 q 910 99 986 172 q 571 -36 771 -36 q 299 46 421 -36 q 133 224 190 118 q 75 460 75 331 q 219 811 75 664 q 572 958 364 958 m 572 888 q 271 761 394 888 q 147 460 147 635 q 271 158 147 282 q 571 35 394 35 q 872 160 749 35 q 994 460 994 286 q 963 624 994 546 q 869 763 931 703 q 572 888 744 888 m 315 744 l 589 744 q 749 706 692 744 q 807 610 807 668 q 763 518 807 550 q 618 468 719 486 q 767 336 744 439 q 776 256 772 282 q 804 229 779 229 q 843 317 843 229 l 878 317 q 850 214 878 249 q 761 179 822 179 q 704 189 728 179 q 665 219 681 199 q 647 278 650 240 q 640 353 643 317 q 601 433 631 410 q 515 457 571 457 l 515 290 q 529 246 515 258 q 582 228 543 233 l 582 193 l 315 193 l 315 228 q 371 242 354 228 q 388 290 388 256 l 388 644 q 372 694 388 679 q 315 708 356 708 l 315 744 m 515 490 q 544 489 525 489 q 675 611 675 489 q 647 680 675 650 q 574 710 618 710 q 515 665 515 710 l 515 490 z "},"¯":{"ha":694,"x_min":183,"x_max":550,"o":"m 183 825 l 221 940 q 406 929 325 929 q 479 932 444 929 q 550 944 514 935 l 518 824 q 446 832 476 831 q 365 833 415 833 q 303 832 325 833 q 183 825 193 825 z "},"°":{"ha":457,"x_min":24,"x_max":435,"o":"m 229 993 q 375 933 315 993 q 435 786 435 874 q 374 641 435 701 q 228 581 314 581 q 83 640 143 581 q 24 786 24 700 q 83 933 24 872 q 229 993 142 993 m 229 906 q 145 872 181 906 q 110 788 110 838 q 144 703 110 738 q 229 668 179 668 q 313 703 279 668 q 347 788 347 739 q 313 871 347 836 q 229 906 278 906 z "},"±":{"ha":1157,"x_min":172,"x_max":985,"o":"m 510 829 l 647 829 l 647 608 l 985 608 l 985 474 l 647 474 l 647 253 l 510 253 l 510 474 l 172 474 l 172 608 l 510 608 l 510 829 m 172 133 l 985 133 l 985 -1 l 172 -1 l 172 133 z "},"²":{"ha":425,"x_min":-15,"x_max":388,"o":"m 4 315 l -15 346 q 207 608 207 521 q 169 687 207 654 q 71 719 131 719 q 13 710 40 719 l 4 726 l 72 772 q 128 802 101 792 q 182 813 156 813 q 290 776 247 813 q 332 681 332 739 q 261 540 332 617 q 157 438 239 517 q 239 436 211 438 q 388 429 381 429 l 275 307 q 156 325 226 325 q 96 323 132 325 q 4 315 60 321 z "},"³":{"ha":367,"x_min":18,"x_max":328,"o":"m 83 272 l 65 299 q 165 365 133 333 q 197 439 197 397 q 160 514 197 485 q 56 543 122 543 l 54 565 q 168 661 168 597 q 147 707 168 689 q 90 725 126 725 q 33 710 60 725 l 18 729 l 94 781 q 185 813 140 813 q 265 788 233 813 q 296 725 296 763 q 211 615 296 671 q 328 494 328 581 q 267 383 328 436 q 83 272 207 329 z "},"´":{"ha":694,"x_min":261,"x_max":499,"o":"m 294 764 l 261 850 q 424 1001 356 914 l 499 879 q 403 813 451 840 q 294 764 354 785 z "},"µ":{"ha":815,"x_min":-82,"x_max":761,"o":"m 121 142 q 90 -122 99 -56 q -4 -287 69 -287 q -82 -210 -82 -287 q -25 14 -82 -182 q 36 253 14 146 l 110 600 l 283 600 l 217 289 q 201 189 201 219 q 279 104 201 104 q 404 253 374 104 l 478 600 l 651 600 l 574 239 q 565 197 568 213 q 563 164 563 181 q 613 101 563 101 q 688 157 661 101 q 712 212 700 186 q 739 238 724 238 q 761 211 761 238 q 752 154 761 189 q 721 82 743 119 q 561 -17 667 -17 q 436 118 449 -17 q 370 15 408 46 q 268 -17 332 -17 q 121 142 136 -17 z "},"¶":{"ha":694,"x_min":28,"x_max":667,"o":"m 667 1003 l 667 928 l 590 928 l 590 0 l 488 0 l 488 928 l 381 928 l 381 0 l 276 0 l 276 532 q 95 598 163 532 q 28 767 28 664 q 100 938 28 872 q 293 1003 172 1003 l 667 1003 z "},"·":{"ha":379,"x_min":60,"x_max":319,"o":"m 60 357 q 111 453 60 407 q 219 499 163 499 q 289 468 258 499 q 319 394 319 438 q 268 299 319 344 q 164 253 217 253 q 90 283 121 253 q 60 357 60 314 z "},"∙":{"ha":379,"x_min":60,"x_max":319,"o":"m 60 357 q 111 453 60 407 q 219 499 163 499 q 289 468 258 499 q 319 394 319 438 q 268 299 319 344 q 164 253 217 253 q 90 283 121 253 q 60 357 60 314 z "},"¸":{"ha":694,"x_min":224,"x_max":496,"o":"m 224 -289 l 231 -258 q 385 -156 385 -232 q 331 -111 385 -111 q 271 -122 311 -111 q 283 -53 278 -86 q 289 10 289 -19 l 344 39 l 339 -46 l 375 -43 q 496 -126 496 -43 q 423 -241 496 -193 q 224 -289 350 -289 z "},"¹":{"ha":318,"x_min":25,"x_max":242,"o":"m 110 296 q 111 392 110 324 q 113 469 113 461 l 113 525 q 111 632 113 618 q 68 697 104 697 l 33 689 l 25 710 l 124 774 q 169 801 158 796 q 204 813 190 813 q 234 793 226 813 q 242 731 242 774 l 242 565 l 240 374 l 110 296 z "},"º":{"ha":542,"x_min":25,"x_max":515,"o":"m 192 893 q 165 804 165 850 q 212 681 165 736 q 313 626 258 626 q 389 710 389 626 q 329 862 389 792 q 186 932 269 932 q 131 925 156 932 l 124 944 q 319 1028 242 1028 q 455 963 394 1028 q 515 815 515 899 q 424 633 515 724 q 218 519 308 519 q 85 581 144 519 q 25 719 25 642 q 175 906 25 804 l 192 893 z "},"»":{"ha":650,"x_min":42,"x_max":611,"o":"m 489 575 q 579 467 553 507 q 611 382 611 418 q 364 139 611 319 l 333 181 q 450 329 450 281 q 422 393 450 353 q 342 489 394 433 l 489 575 m 197 575 q 288 467 261 507 q 319 382 319 418 q 72 139 319 319 l 42 181 q 158 329 158 281 q 131 393 158 353 q 50 489 103 433 l 197 575 z "},"¼":{"ha":1014,"x_min":25,"x_max":1000,"o":"m 104 329 q 106 402 104 349 q 107 490 107 456 l 107 542 q 106 642 107 628 q 65 701 100 701 l 32 694 l 25 714 l 118 774 q 159 798 139 786 q 194 810 179 810 q 223 792 215 810 q 231 733 231 774 l 231 579 l 229 401 l 104 329 m 72 -82 q 274 239 156 47 q 466 559 365 388 q 644 865 567 731 l 767 885 q 490 464 633 700 q 197 -62 343 219 l 72 -82 m 757 -44 l 768 101 l 646 94 q 544 144 544 94 q 604 260 544 181 q 794 458 675 354 l 819 436 q 707 315 744 368 q 669 226 669 261 q 729 186 669 186 l 769 189 q 769 244 769 217 q 771 296 769 271 l 886 365 l 879 194 l 1000 204 l 917 110 l 878 107 l 875 61 l 876 22 l 757 -44 z "},"½":{"ha":942,"x_min":25,"x_max":906,"o":"m 104 329 q 106 402 104 349 q 107 490 107 456 l 107 542 q 106 642 107 628 q 65 701 100 701 l 32 694 l 25 714 l 118 774 q 159 798 139 786 q 194 810 179 810 q 223 792 215 810 q 231 733 231 774 l 231 579 l 229 401 l 104 329 m 72 -82 q 274 239 156 47 q 466 559 365 388 q 644 865 567 731 l 767 885 q 490 464 633 700 q 197 -62 343 219 l 72 -82 m 540 -6 l 522 24 q 733 267 733 188 q 698 340 733 310 q 604 369 663 369 q 549 361 576 369 l 540 376 l 606 419 q 658 447 632 436 q 710 457 683 457 q 812 422 771 457 q 853 335 853 388 q 828 256 853 294 q 686 108 803 217 q 792 104 719 108 q 906 100 864 100 l 799 -12 q 683 4 750 4 q 627 2 661 4 q 540 -6 593 0 z "},"¾":{"ha":1060,"x_min":17,"x_max":1046,"o":"m 79 307 l 63 332 q 188 463 188 394 q 151 533 188 506 q 53 560 115 560 l 51 579 q 160 668 160 611 q 139 711 160 694 q 86 728 118 728 q 32 714 58 728 l 17 732 l 90 779 q 176 810 135 810 q 251 786 221 810 q 282 728 282 763 q 201 626 282 678 q 313 514 313 593 q 255 410 313 460 q 79 307 197 361 m 118 -82 q 319 239 201 47 q 512 559 411 388 q 690 865 613 731 l 813 885 q 536 464 679 700 q 243 -62 389 219 l 118 -82 m 803 -44 l 814 101 l 692 94 q 590 144 590 94 q 650 260 590 181 q 840 458 721 354 l 865 436 q 753 315 790 368 q 715 226 715 261 q 775 186 715 186 l 815 189 q 815 244 815 217 q 817 296 815 271 l 932 365 l 925 194 l 1046 204 l 963 110 l 924 107 l 921 61 l 922 22 l 803 -44 z "},"¿":{"ha":665,"x_min":43,"x_max":692,"o":"m 425 718 l 464 674 q 317 528 365 600 q 269 375 269 456 q 338 210 269 272 q 519 147 406 147 q 667 178 589 147 l 692 149 l 571 49 q 487 -2 531 15 q 390 -19 443 -19 q 144 65 244 -19 q 43 267 43 149 q 124 465 43 367 q 360 671 196 554 l 425 718 m 246 924 l 358 1004 q 381 1019 372 1014 q 418 1031 399 1031 q 485 994 453 1031 q 517 918 517 958 q 510 884 517 899 q 469 846 503 869 l 363 769 q 246 924 342 889 z "},"À":{"ha":1482,"x_min":93,"x_max":1481,"o":"m 93 -31 q 157 320 125 161 q 231 657 189 479 q 172 758 196 717 q 128 872 128 838 q 207 968 128 917 l 321 1044 q 374 859 321 974 q 533 590 426 744 q 860 301 738 301 q 952 347 903 301 q 1041 478 1001 393 q 1099 664 1081 563 q 1118 876 1118 765 l 1422 1050 l 1314 785 q 1481 115 1351 419 l 1272 -32 q 1142 503 1179 274 q 765 93 929 93 q 363 464 613 93 q 343 243 347 306 q 339 133 339 181 l 93 -31 m 799 1218 q 881 1144 826 1167 l 833 1108 q 754 1067 781 1067 q 678 1128 704 1067 l 799 1218 z "},"Á":{"ha":1010,"x_min":-68,"x_max":1046,"o":"m 283 383 l 429 378 l 590 383 q 440 774 479 644 q 354 568 401 685 q 283 383 303 442 m -68 -17 q 358 932 201 431 l 539 1019 l 579 1006 q 1007 140 875 140 q 1031 147 1017 140 l 1046 115 l 919 29 q 846 -8 865 -8 q 649 256 790 -8 l 425 250 l 235 254 q 197 92 208 175 l -68 -17 m 419 1069 l 386 1156 q 549 1307 481 1219 l 624 1185 q 528 1118 576 1146 q 419 1069 479 1090 z "},"Â":{"ha":1010,"x_min":-68,"x_max":1046,"o":"m 283 383 l 429 378 l 590 383 q 440 774 479 644 q 354 568 401 685 q 283 383 303 442 m -68 -17 q 358 932 201 431 l 539 1019 l 579 1006 q 1007 140 875 140 q 1031 147 1017 140 l 1046 115 l 919 29 q 846 -8 865 -8 q 649 256 790 -8 l 425 250 l 235 254 q 197 92 208 175 l -68 -17 m 372 1074 l 301 1133 q 401 1213 361 1172 q 463 1301 440 1254 l 529 1299 l 603 1304 l 603 1274 q 622 1208 603 1239 q 679 1144 638 1183 l 619 1069 q 557 1126 581 1094 q 519 1214 533 1158 q 372 1074 471 1132 z "},"Ã":{"ha":1010,"x_min":-68,"x_max":1046,"o":"m 283 383 l 429 378 l 590 383 q 440 774 479 644 q 354 568 401 685 q 283 383 303 442 m -68 -17 q 358 932 201 431 l 539 1019 l 579 1006 q 1007 140 875 140 q 1031 147 1017 140 l 1046 115 l 919 29 q 846 -8 865 -8 q 649 256 790 -8 l 425 250 l 235 254 q 197 92 208 175 l -68 -17 m 319 1099 l 244 1181 q 399 1274 346 1274 q 463 1249 422 1274 q 528 1224 503 1224 q 642 1275 569 1224 l 704 1197 q 546 1097 621 1097 q 467 1126 521 1097 q 419 1142 438 1142 q 363 1124 396 1142 q 319 1099 340 1111 z "},"Ä":{"ha":1010,"x_min":-68,"x_max":1046,"o":"m 657 1185 l 629 1092 q 540 1094 601 1092 q 476 1097 478 1097 q 423 1097 433 1097 q 296 1083 413 1096 l 329 1171 q 415 1170 369 1171 q 514 1168 461 1169 q 594 1171 572 1168 q 657 1185 617 1174 m 1046 115 l 919 29 q 846 -8 865 -8 q 649 256 790 -8 l 425 250 l 235 254 q 197 92 208 175 l -68 -17 q 358 932 201 431 l 539 1019 l 579 1006 q 1007 140 875 140 q 1031 147 1017 140 l 1046 115 m 590 383 q 440 774 479 644 q 354 568 401 685 q 283 383 303 442 l 429 378 l 590 383 z "},"Å":{"ha":989,"x_min":-28,"x_max":1014,"o":"m 154 -32 q 172 249 167 99 q 176 568 176 400 l 172 840 l -28 829 l 144 994 q 280 1012 201 1004 q 439 1019 358 1019 q 760 956 651 1019 q 868 769 868 892 q 679 526 868 629 q 971 135 918 135 q 999 143 983 135 l 1014 113 l 911 44 q 846 5 871 18 q 796 -8 821 -8 q 639 179 747 -8 l 457 494 q 657 689 657 557 q 596 808 657 764 q 421 851 535 851 l 379 850 q 376 712 379 771 q 371 572 374 653 q 374 388 371 474 q 382 118 382 131 l 154 -32 m 517 -85 q 599 -158 544 -136 l 551 -194 q 472 -236 499 -236 q 396 -175 422 -236 l 517 -85 z "},"Æ":{"ha":1246,"x_min":-92,"x_max":1271,"o":"m 528 8 q 544 128 538 72 q 550 244 550 183 l 256 244 q 199 83 221 160 l -92 -32 q 264 526 114 254 q 482 1004 406 783 q 642 1000 563 1004 q 856 989 851 989 q 976 994 897 989 q 1231 1007 1154 1007 q 1128 910 1176 953 q 1047 847 1081 868 q 972 830 1024 833 q 814 826 921 826 l 743 826 l 743 604 q 938 612 794 604 q 1126 619 1081 619 q 1026 511 1065 550 q 963 460 986 472 q 889 444 939 447 q 740 440 839 440 l 740 178 l 922 174 q 1110 176 1032 174 q 1271 190 1189 179 l 1096 0 q 918 10 1017 7 q 713 13 819 13 l 528 8 m 322 371 l 550 371 l 553 613 l 551 815 q 322 371 426 600 z "},"Ç":{"ha":913,"x_min":94,"x_max":892,"o":"m 300 293 q 383 170 322 215 q 526 125 443 125 q 638 160 597 125 q 678 250 678 194 q 611 375 678 331 q 433 443 565 406 q 256 492 344 467 q 194 517 218 503 q 136 578 157 539 q 115 664 115 617 q 167 804 115 740 q 326 932 218 868 q 632 1019 475 1019 q 778 985 718 1019 q 831 918 831 954 q 816 890 831 903 q 767 857 801 876 l 644 790 q 468 903 585 903 q 365 867 406 903 q 325 776 325 831 q 682 581 325 676 q 892 392 892 524 q 849 269 892 335 q 724 133 807 203 q 351 -17 542 -17 q 168 27 242 -17 q 94 121 94 71 q 119 168 94 144 q 186 218 138 185 l 300 293 m 393 1064 l 371 1122 q 533 1274 465 1186 l 597 1179 q 501 1113 550 1140 q 393 1064 453 1085 z "},"È":{"ha":989,"x_min":-28,"x_max":1014,"o":"m 154 -32 q 172 249 167 99 q 176 568 176 400 l 172 840 l -28 829 l 144 994 q 280 1012 201 1004 q 439 1019 358 1019 q 760 956 651 1019 q 868 769 868 892 q 679 526 868 629 q 971 135 918 135 q 999 143 983 135 l 1014 113 l 911 44 q 846 5 871 18 q 796 -8 821 -8 q 639 179 747 -8 l 457 494 q 657 689 657 557 q 596 808 657 764 q 421 851 535 851 l 379 850 q 376 712 379 771 q 371 572 374 653 q 374 388 371 474 q 382 118 382 131 l 154 -32 m 657 1185 l 629 1092 q 540 1094 601 1092 q 476 1097 478 1097 q 423 1097 433 1097 q 296 1083 413 1096 l 329 1171 q 415 1170 369 1171 q 514 1168 461 1169 q 594 1171 572 1168 q 657 1185 617 1174 m 517 -85 q 599 -158 544 -136 l 551 -194 q 472 -236 499 -236 q 396 -175 422 -236 l 517 -85 z "},"É":{"ha":456,"x_min":51,"x_max":419,"o":"m 365 110 l 154 -32 q 158 207 154 97 q 165 442 161 317 q 110 860 165 860 q 68 843 93 860 l 51 872 l 192 969 q 244 1006 233 999 q 310 1033 288 1033 q 354 994 344 1033 q 364 839 364 954 l 364 713 l 364 550 l 365 110 m 419 1185 l 392 1092 q 302 1094 364 1092 q 239 1097 240 1097 q 185 1097 196 1097 q 58 1083 175 1096 l 92 1171 q 178 1170 132 1171 q 276 1168 224 1169 q 357 1171 335 1168 q 419 1185 379 1174 z "},"Ê":{"ha":974,"x_min":-26,"x_max":879,"o":"m 403 124 l 190 -17 q 186 196 190 88 q 174 564 174 519 l -26 564 l 121 715 l 174 715 q 194 860 174 803 q 269 975 215 918 q 436 1112 354 1064 q 581 1160 518 1160 q 728 1115 656 1160 q 849 989 801 1069 l 656 864 q 569 981 626 938 q 453 1024 511 1024 q 386 972 406 1024 q 367 800 367 919 l 371 717 q 434 715 390 717 q 503 714 478 714 q 674 715 618 714 q 775 718 731 717 q 858 672 839 718 q 876 486 876 626 l 875 278 l 879 113 l 672 -17 q 674 145 672 74 q 676 282 675 217 l 676 386 q 672 500 676 463 q 649 554 667 538 q 614 568 636 565 q 556 571 592 571 l 375 567 l 375 538 q 380 378 375 468 q 403 124 385 288 z "},"Ë":{"ha":1203,"x_min":-17,"x_max":1121,"o":"m 192 -32 q 224 347 214 147 q 235 754 235 547 q 50 865 118 865 q -1 851 26 865 l -17 885 l 124 981 q 168 1008 151 1000 q 207 1021 190 1021 q 333 953 240 1021 q 582 738 436 878 q 935 367 750 576 l 936 496 q 935 679 936 646 q 896 900 929 822 l 1121 1051 q 1099 575 1108 828 q 1089 99 1089 322 l 915 -25 q 760 251 890 92 q 394 619 635 403 l 392 503 q 394 331 392 401 q 399 206 396 261 l 413 115 l 192 -32 m 644 -85 q 726 -158 672 -136 l 679 -194 q 600 -236 626 -236 q 524 -175 550 -236 l 644 -85 z "},"Ì":{"ha":1203,"x_min":-17,"x_max":1121,"o":"m 192 -32 q 224 347 214 147 q 235 754 235 547 q 50 865 118 865 q -1 851 26 865 l -17 885 l 124 981 q 168 1008 151 1000 q 207 1021 190 1021 q 333 953 240 1021 q 582 738 436 878 q 935 367 750 576 l 936 496 q 935 679 936 646 q 896 900 929 822 l 1121 1051 q 1099 575 1108 828 q 1089 99 1089 322 l 915 -25 q 760 251 890 92 q 394 619 635 403 l 392 503 q 394 331 392 401 q 399 206 396 261 l 413 115 l 192 -32 m 660 1218 q 742 1144 688 1167 l 694 1108 q 615 1067 642 1067 q 539 1128 565 1067 l 660 1218 z "},"Í":{"ha":971,"x_min":-26,"x_max":875,"o":"m 579 725 l 456 571 l 375 567 l 375 538 q 380 378 375 468 q 403 124 385 288 l 190 -17 q 186 196 190 88 q 174 564 174 519 l -26 564 l 121 715 l 174 715 q 194 860 174 803 q 268 974 214 917 q 585 1160 446 1160 q 711 1135 640 1160 q 861 1061 782 1111 l 860 913 q 863 646 860 767 q 871 376 867 525 q 875 133 875 228 l 658 -17 q 661 204 658 85 q 668 488 664 324 q 672 768 672 653 q 666 899 672 860 q 632 958 660 938 q 541 1003 596 985 q 449 1022 486 1022 q 384 970 401 1022 q 367 792 367 918 l 371 717 l 579 725 z "},"Î":{"ha":456,"x_min":51,"x_max":435,"o":"m 154 -32 q 158 207 154 97 q 165 442 161 317 q 110 860 165 860 q 68 843 93 860 l 51 872 l 192 969 q 244 1006 233 999 q 310 1033 288 1033 q 354 994 344 1033 q 364 839 364 954 l 364 713 l 364 550 l 365 110 l 154 -32 m 128 1074 l 57 1133 q 156 1213 117 1172 q 218 1301 196 1254 l 285 1299 l 358 1304 l 358 1274 q 378 1208 358 1239 q 435 1144 393 1183 l 375 1069 q 313 1126 336 1094 q 275 1214 289 1158 q 128 1074 226 1132 z "},"Ï":{"ha":1203,"x_min":-17,"x_max":1121,"o":"m 192 -32 q 224 347 214 147 q 235 754 235 547 q 50 865 118 865 q -1 851 26 865 l -17 885 l 124 981 q 168 1008 151 1000 q 207 1021 190 1021 q 333 953 240 1021 q 582 738 436 878 q 935 367 750 576 l 936 496 q 935 679 936 646 q 896 900 929 822 l 1121 1051 q 1099 575 1108 828 q 1089 99 1089 322 l 915 -25 q 760 251 890 92 q 394 619 635 403 l 392 503 q 394 331 392 401 q 399 206 396 261 l 413 115 l 192 -32 m 482 1099 l 407 1181 q 561 1274 508 1274 q 625 1249 585 1274 q 690 1224 665 1224 q 804 1275 732 1224 l 867 1197 q 708 1097 783 1097 q 629 1126 683 1097 q 582 1142 600 1142 q 525 1124 558 1142 q 482 1099 503 1111 z "},"Ð":{"ha":1042,"x_min":-32,"x_max":992,"o":"m 158 44 q 176 272 171 181 q 182 463 182 364 q 4 451 108 463 l 31 603 q 111 600 53 603 q 182 597 169 597 l 183 683 l 181 838 q 47 829 111 838 q -32 815 40 828 l 167 990 q 342 1003 253 1003 q 824 869 647 1003 q 992 533 992 742 q 947 352 992 438 q 807 178 903 267 q 436 -17 597 -17 q 158 44 354 -17 m 381 203 q 493 174 438 185 q 597 163 549 163 q 753 223 700 163 q 807 400 807 283 q 690 707 807 585 q 382 829 574 829 q 381 713 382 771 q 378 597 379 654 l 590 601 l 553 460 l 374 464 l 381 203 z "},"Ñ":{"ha":913,"x_min":94,"x_max":892,"o":"m 300 293 q 383 170 322 215 q 526 125 443 125 q 638 160 597 125 q 678 250 678 194 q 611 375 678 331 q 433 443 565 406 q 256 492 344 467 q 194 517 218 503 q 136 578 157 539 q 115 664 115 617 q 167 804 115 740 q 326 932 218 868 q 632 1019 475 1019 q 778 985 718 1019 q 831 918 831 954 q 816 890 831 903 q 767 857 801 876 l 644 790 q 468 903 585 903 q 365 867 406 903 q 325 776 325 831 q 682 581 325 676 q 892 392 892 524 q 849 269 892 335 q 724 133 807 203 q 351 -17 542 -17 q 168 27 242 -17 q 94 121 94 71 q 119 168 94 144 q 186 218 138 185 l 300 293 m 483 -85 q 565 -158 511 -136 l 518 -194 q 439 -236 465 -236 q 363 -175 389 -236 l 483 -85 z "},"Ò":{"ha":1035,"x_min":-37,"x_max":985,"o":"m 151 44 q 178 614 178 317 l 174 838 q 88 834 128 838 q -37 815 49 831 l 160 990 q 243 1001 208 999 q 335 1003 278 1003 q 817 869 640 1003 q 985 533 985 742 q 940 352 985 438 q 800 178 896 267 q 429 -17 590 -17 q 151 44 347 -17 m 374 203 q 486 174 431 185 q 590 163 542 163 q 747 224 693 163 q 801 400 801 285 q 686 706 801 586 q 375 829 567 829 q 372 653 375 760 q 369 510 369 546 q 371 334 369 404 q 374 203 372 264 m 508 -85 q 590 -158 536 -136 l 543 -194 q 464 -236 490 -236 q 388 -175 414 -236 l 508 -85 z "},"Ó":{"ha":1039,"x_min":58,"x_max":994,"o":"m 336 747 q 271 554 271 660 q 297 410 271 483 q 370 272 322 336 q 476 172 418 207 q 589 136 533 136 q 730 210 678 136 q 782 415 782 283 q 697 706 782 569 q 572 836 643 792 q 418 881 501 881 q 292 857 360 881 l 269 890 q 601 1019 446 1019 q 881 893 767 1019 q 994 582 994 767 q 950 369 994 464 q 810 178 906 274 q 429 -17 613 -17 q 167 103 275 -17 q 58 392 58 222 q 119 597 58 506 q 308 775 179 688 l 336 747 m 467 1069 l 433 1156 q 596 1307 528 1219 l 671 1185 q 575 1118 624 1146 q 467 1069 526 1090 z "},"Ô":{"ha":1039,"x_min":58,"x_max":994,"o":"m 336 747 q 271 554 271 660 q 297 410 271 483 q 370 272 322 336 q 476 172 418 207 q 589 136 533 136 q 730 210 678 136 q 782 415 782 283 q 697 706 782 569 q 572 836 643 792 q 418 881 501 881 q 292 857 360 881 l 269 890 q 601 1019 446 1019 q 881 893 767 1019 q 994 582 994 767 q 950 369 994 464 q 810 178 906 274 q 429 -17 613 -17 q 167 103 275 -17 q 58 392 58 222 q 119 597 58 506 q 308 775 179 688 l 336 747 m 419 1074 l 349 1133 q 448 1213 408 1172 q 510 1301 488 1254 l 576 1299 l 650 1304 l 650 1274 q 669 1208 650 1239 q 726 1144 685 1183 l 667 1069 q 604 1126 628 1094 q 567 1214 581 1158 q 419 1074 518 1132 z "},"Õ":{"ha":1039,"x_min":58,"x_max":994,"o":"m 336 747 q 271 554 271 660 q 297 410 271 483 q 370 272 322 336 q 476 172 418 207 q 589 136 533 136 q 730 210 678 136 q 782 415 782 283 q 697 706 782 569 q 572 836 643 792 q 418 881 501 881 q 292 857 360 881 l 269 890 q 601 1019 446 1019 q 881 893 767 1019 q 994 582 994 767 q 950 369 994 464 q 810 178 906 274 q 429 -17 613 -17 q 167 103 275 -17 q 58 392 58 222 q 119 597 58 506 q 308 775 179 688 l 336 747 m 367 1099 l 292 1181 q 446 1274 393 1274 q 510 1249 469 1274 q 575 1224 550 1224 q 689 1275 617 1224 l 751 1197 q 593 1097 668 1097 q 514 1126 568 1097 q 467 1142 485 1142 q 410 1124 443 1142 q 367 1099 388 1111 z "},"Ö":{"ha":936,"x_min":-17,"x_max":1046,"o":"m 356 -32 q 380 244 374 99 q 386 542 386 390 q 383 678 386 578 q 379 824 379 779 q 179 833 285 824 q -17 856 144 836 l 207 1018 q 500 1004 290 1018 q 660 997 604 997 q 851 1003 758 997 q 1046 1022 944 1008 l 961 939 q 907 885 933 911 q 818 833 861 842 q 599 819 753 819 l 593 618 q 597 366 593 474 q 613 142 600 258 l 356 -32 m 500 -85 q 582 -158 528 -136 l 535 -194 q 456 -236 482 -236 q 379 -175 406 -236 l 500 -85 z "},"×":{"ha":1157,"x_min":188,"x_max":989,"o":"m 282 815 l 588 510 l 893 815 l 989 721 l 683 414 l 989 108 l 893 14 l 588 319 l 282 14 l 188 108 l 493 414 l 188 721 l 282 815 z "},"Ø":{"ha":1022,"x_min":60,"x_max":993,"o":"m 788 107 q 631 16 710 47 q 492 -15 553 -15 q 330 26 410 -15 q 185 147 250 68 q 60 486 60 297 q 113 701 60 601 q 272 882 167 801 q 464 983 360 947 q 671 1019 568 1019 q 805 996 754 1019 q 856 939 856 972 q 803 874 856 907 q 721 829 788 864 l 668 801 q 490 901 604 901 q 331 823 394 901 q 268 618 268 744 q 382 294 268 444 q 653 136 504 136 q 755 174 718 136 q 792 278 792 213 q 743 403 792 349 q 608 478 694 458 l 692 538 q 761 582 736 569 q 831 600 797 600 q 844 601 839 601 q 933 578 892 601 q 974 518 974 556 l 993 3 q 715 -239 853 -101 l 685 -218 q 753 -87 729 -168 q 788 107 778 -6 z "},"Ù":{"ha":1076,"x_min":15,"x_max":1014,"o":"m 818 617 q 817 769 818 750 q 764 865 810 865 q 736 856 751 865 l 721 886 l 896 1003 q 933 1024 917 1017 q 963 1032 949 1032 q 1004 979 1004 1032 q 1011 812 1008 938 q 1014 474 1014 686 l 1011 117 l 808 -32 q 813 228 808 56 q 818 461 818 401 l 372 461 l 372 254 l 371 117 l 167 -32 q 171 207 167 44 q 175 456 175 369 l 15 453 l 15 476 l 175 606 q 114 847 175 847 q 68 832 97 847 l 51 860 l 253 1003 q 319 1032 294 1032 q 363 981 353 1032 q 374 804 374 929 l 374 783 l 374 765 l 374 749 q 373 692 374 721 q 372 635 372 664 l 372 617 l 818 617 m 567 -85 q 649 -158 594 -136 l 601 -194 q 522 -236 549 -236 q 446 -175 472 -236 l 567 -85 z "},"Ú":{"ha":1161,"x_min":56,"x_max":1206,"o":"m 301 1019 l 300 964 q 331 747 300 863 q 421 499 361 632 q 686 176 567 176 q 766 208 728 176 q 838 307 804 240 q 924 671 924 476 q 906 846 924 761 l 1206 1029 q 967 351 1143 681 q 594 -32 758 -32 q 446 38 521 -32 q 283 253 371 107 q 106 614 171 439 q 56 806 56 749 q 89 890 56 856 q 193 961 118 919 l 301 1019 m 575 1069 l 542 1156 q 704 1307 636 1219 l 779 1185 q 683 1118 732 1146 q 575 1069 635 1090 z "},"Û":{"ha":1161,"x_min":56,"x_max":1206,"o":"m 301 1019 l 300 964 q 331 747 300 863 q 421 499 361 632 q 686 176 567 176 q 766 208 728 176 q 838 307 804 240 q 924 671 924 476 q 906 846 924 761 l 1206 1029 q 967 351 1143 681 q 594 -32 758 -32 q 446 38 521 -32 q 283 253 371 107 q 106 614 171 439 q 56 806 56 749 q 89 890 56 856 q 193 961 118 919 l 301 1019 m 528 1074 l 457 1133 q 556 1213 517 1172 q 618 1301 596 1254 l 685 1299 l 758 1304 l 758 1274 q 778 1208 758 1239 q 835 1144 793 1183 l 775 1069 q 713 1126 736 1094 q 675 1214 689 1158 q 528 1074 626 1132 z "},"Ü":{"ha":1161,"x_min":56,"x_max":1206,"o":"m 301 1019 l 300 964 q 331 747 300 863 q 421 499 361 632 q 686 176 567 176 q 766 208 728 176 q 838 307 804 240 q 924 671 924 476 q 906 846 924 761 l 1206 1029 q 967 351 1143 681 q 594 -32 758 -32 q 446 38 521 -32 q 283 253 371 107 q 106 614 171 439 q 56 806 56 749 q 89 890 56 856 q 193 961 118 919 l 301 1019 m 844 1185 l 817 1092 q 727 1094 789 1092 q 664 1097 665 1097 q 610 1097 621 1097 q 483 1083 600 1096 l 517 1171 q 603 1170 557 1171 q 701 1168 649 1169 q 782 1171 760 1168 q 844 1185 804 1174 z "},"Ý":{"ha":1086,"x_min":3,"x_max":1169,"o":"m 489 -32 l 493 122 q 471 325 493 257 q 426 419 457 365 q 342 547 396 472 q 51 853 124 853 q 21 843 35 853 l 3 871 l 139 964 q 182 994 160 979 q 235 1017 215 1017 q 661 461 338 1017 q 836 838 836 740 l 832 897 l 1154 1053 l 1169 1033 q 1050 867 1113 958 q 939 697 988 775 q 839 536 931 683 q 761 413 800 474 q 721 333 729 360 q 707 211 707 289 q 708 166 707 181 q 718 126 710 151 l 489 -32 m 490 1069 l 457 1156 q 619 1307 551 1219 l 694 1185 q 599 1118 647 1146 q 490 1069 550 1090 z "},"Þ":{"ha":871,"x_min":57,"x_max":857,"o":"m 75 843 l 57 872 l 199 969 q 251 1006 240 999 q 317 1033 294 1033 q 360 997 351 1033 q 369 868 369 960 l 369 824 q 731 749 604 824 q 857 542 857 674 q 476 254 857 336 l 464 286 q 632 469 632 343 q 563 602 632 553 q 372 651 494 651 q 371 594 372 632 q 369 540 369 557 l 374 115 l 153 -32 q 158 190 153 75 q 172 488 172 479 q 117 860 172 860 q 75 843 100 860 z "},"ß":{"ha":929,"x_min":-26,"x_max":892,"o":"m 174 564 l -26 564 l 121 715 l 174 715 q 190 849 174 796 q 251 956 207 903 q 418 1101 324 1040 q 554 1157 506 1157 q 713 1072 635 1157 q 792 878 792 986 q 749 736 792 796 q 629 654 706 676 q 821 582 750 654 q 892 399 892 510 q 860 257 892 325 q 761 113 828 189 q 654 16 704 47 q 551 -15 604 -15 q 465 0 504 -15 q 400 43 425 15 l 551 204 q 647 128 599 128 q 697 153 679 128 q 715 224 715 178 q 701 328 715 271 q 654 446 686 385 q 450 572 590 572 l 399 569 l 492 717 q 582 733 554 717 q 610 790 610 749 q 552 942 610 864 q 442 1021 494 1021 q 368 792 368 1021 q 376 471 368 619 q 403 124 383 322 l 190 -17 q 186 196 190 88 q 174 564 174 519 z "},"à":{"ha":1428,"x_min":1,"x_max":1363,"o":"m 139 -17 q 142 75 139 15 q 146 150 146 135 q 71 540 146 540 q 13 518 53 540 l 1 551 q 129 639 61 589 q 257 711 228 711 q 328 630 308 711 q 347 361 347 549 q 583 619 494 536 q 725 708 678 708 q 838 357 838 708 q 1219 714 1118 714 q 1290 653 1267 714 q 1331 449 1314 592 q 1363 108 1339 381 l 1174 -17 q 1057 467 1174 467 q 704 36 918 467 l 671 38 q 647 351 671 253 q 564 450 622 450 q 190 -17 406 450 l 139 -17 m 849 968 q 931 894 876 917 l 883 858 q 804 817 831 817 q 728 878 754 817 l 849 968 z "},"á":{"ha":800,"x_min":13,"x_max":818,"o":"m 643 -17 q 493 229 575 153 q 279 311 406 311 q 206 295 233 311 q 179 253 179 279 q 234 175 179 208 q 364 142 289 142 q 464 167 418 142 l 483 142 q 211 -18 324 -18 q 73 30 133 -18 q 13 138 13 78 q 111 299 13 222 q 400 413 221 383 q 239 558 325 558 q 188 542 215 558 l 168 568 l 313 674 q 357 703 344 696 q 397 714 378 714 q 818 101 510 714 l 643 -17 m 326 764 l 293 850 q 456 1001 388 914 l 531 879 q 435 813 483 840 q 326 764 386 785 z "},"â":{"ha":800,"x_min":13,"x_max":818,"o":"m 643 -17 q 493 229 575 153 q 279 311 406 311 q 206 295 233 311 q 179 253 179 279 q 234 175 179 208 q 364 142 289 142 q 464 167 418 142 l 483 142 q 211 -18 324 -18 q 73 30 133 -18 q 13 138 13 78 q 111 299 13 222 q 400 413 221 383 q 239 558 325 558 q 188 542 215 558 l 168 568 l 313 674 q 357 703 344 696 q 397 714 378 714 q 818 101 510 714 l 643 -17 m 279 768 l 208 828 q 308 908 268 867 q 369 996 347 949 l 436 993 l 510 999 l 510 968 q 529 903 510 933 q 586 839 544 878 l 526 764 q 464 821 488 789 q 426 908 440 853 q 279 768 378 826 z "},"ã":{"ha":800,"x_min":13,"x_max":818,"o":"m 643 -17 q 493 229 575 153 q 279 311 406 311 q 206 295 233 311 q 179 253 179 279 q 234 175 179 208 q 364 142 289 142 q 464 167 418 142 l 483 142 q 211 -18 324 -18 q 73 30 133 -18 q 13 138 13 78 q 111 299 13 222 q 400 413 221 383 q 239 558 325 558 q 188 542 215 558 l 168 568 l 313 674 q 357 703 344 696 q 397 714 378 714 q 818 101 510 714 l 643 -17 m 226 793 l 151 875 q 306 968 253 968 q 369 943 329 968 q 435 918 410 918 q 549 969 476 918 l 611 892 q 453 792 528 792 q 374 821 428 792 q 326 836 344 836 q 269 818 303 836 q 226 793 247 806 z "},"ä":{"ha":800,"x_min":13,"x_max":818,"o":"m 643 -17 q 493 229 575 153 q 279 311 406 311 q 206 295 233 311 q 179 253 179 279 q 234 175 179 208 q 364 142 289 142 q 464 167 418 142 l 483 142 q 211 -18 324 -18 q 73 30 133 -18 q 13 138 13 78 q 111 299 13 222 q 400 413 221 383 q 239 558 325 558 q 188 542 215 558 l 168 568 l 313 674 q 357 703 344 696 q 397 714 378 714 q 818 101 510 714 l 643 -17 m 547 918 l 519 825 q 430 828 492 825 q 367 831 368 831 q 313 830 324 831 q 186 817 303 829 l 219 904 q 306 903 260 904 q 404 901 351 903 q 485 904 463 901 q 547 918 507 907 z "},"å":{"ha":676,"x_min":0,"x_max":656,"o":"m 143 -17 l 144 39 q 75 538 144 538 q 17 518 56 538 l 0 553 l 175 675 q 267 719 239 719 q 314 678 303 719 q 325 533 325 636 q 550 717 486 717 q 656 556 615 717 l 481 415 q 404 525 456 525 q 344 469 356 525 q 332 268 332 413 l 332 242 l 335 101 l 143 -17 m 250 -85 q 332 -158 278 -136 l 285 -194 q 206 -236 232 -236 q 129 -175 156 -236 l 250 -85 z "},"æ":{"ha":1142,"x_min":13,"x_max":1088,"o":"m 786 313 l 767 343 q 882 478 882 415 q 850 540 882 511 q 776 569 818 569 q 704 536 731 569 q 678 442 678 503 q 763 243 678 332 q 946 154 847 154 q 1067 189 1004 154 l 1088 161 l 986 72 q 899 7 933 25 q 803 -17 854 -17 q 681 24 736 -17 q 575 142 633 58 q 454 271 513 231 q 304 315 389 315 q 213 299 246 315 q 179 254 179 282 q 232 175 179 208 q 364 142 285 142 q 464 167 418 142 l 483 142 q 211 -18 324 -18 q 73 30 133 -18 q 13 138 13 78 q 114 300 13 224 q 410 413 226 385 q 318 522 360 486 q 239 558 276 558 q 188 542 213 558 l 168 568 l 313 674 q 357 703 344 696 q 397 714 378 714 q 590 508 458 714 q 759 661 674 608 q 914 714 844 714 q 1035 672 982 714 q 1088 576 1088 631 q 876 368 1088 499 l 786 313 z "},"ç":{"ha":604,"x_min":29,"x_max":569,"o":"m 197 265 l 196 251 q 237 160 196 197 q 342 124 278 124 q 414 172 414 124 q 354 253 414 222 q 199 301 317 272 q 81 349 115 322 q 40 432 40 379 q 222 633 40 511 q 318 692 285 676 q 403 714 364 714 q 509 683 463 714 q 556 614 556 653 q 514 556 556 585 l 400 475 q 358 546 400 515 q 263 576 315 576 q 210 546 210 576 q 375 433 210 475 q 514 389 482 407 q 569 290 569 357 q 533 192 569 238 q 431 97 508 160 q 346 33 374 53 q 203 -17 271 -17 q 82 26 135 -17 q 29 114 29 68 q 56 171 29 147 q 94 200 69 183 l 197 265 m 260 764 l 238 822 q 400 974 332 886 l 464 879 q 368 813 417 840 q 260 764 319 785 z "},"è":{"ha":676,"x_min":0,"x_max":656,"o":"m 143 -17 l 144 39 q 75 538 144 538 q 17 518 56 538 l 0 553 l 175 675 q 267 719 239 719 q 314 678 303 719 q 325 533 325 636 q 550 717 486 717 q 656 556 615 717 l 481 415 q 404 525 456 525 q 344 469 356 525 q 332 268 332 413 l 332 242 l 335 101 l 143 -17 m 250 -85 q 332 -158 278 -136 l 285 -194 q 206 -236 232 -236 q 129 -175 156 -236 l 250 -85 m 508 918 l 481 825 q 391 828 453 825 q 328 831 329 831 q 274 830 285 831 q 147 817 264 829 l 181 904 q 267 903 221 904 q 365 901 313 903 q 446 904 424 901 q 508 918 468 907 z "},"é":{"ha":418,"x_min":8,"x_max":397,"o":"m 136 -17 l 138 144 q 72 538 138 538 q 14 524 46 538 l 8 556 l 149 656 q 200 690 178 676 q 265 717 242 717 q 343 392 343 717 l 343 361 l 343 333 l 343 308 l 343 286 l 343 267 l 343 249 l 343 232 q 342 174 343 200 q 342 128 342 149 l 342 113 l 136 -17 m 397 918 l 369 825 q 280 828 342 825 q 217 831 218 831 q 163 830 174 831 q 36 817 153 829 l 69 904 q 156 903 110 904 q 254 901 201 903 q 335 904 313 901 q 397 918 357 907 z "},"ê":{"ha":664,"x_min":40,"x_max":611,"o":"m 611 161 l 510 72 q 422 8 457 26 q 325 -17 375 -17 q 225 10 278 -17 q 128 88 172 38 q 40 299 40 183 q 161 563 40 439 q 436 714 311 714 q 557 672 504 714 q 610 576 610 631 q 399 368 610 499 l 308 313 l 289 343 q 404 478 404 415 q 372 540 404 511 q 299 569 340 569 q 227 535 253 569 q 201 442 201 501 q 285 244 201 333 q 468 154 369 154 q 589 189 526 154 l 611 161 m 300 768 l 229 828 q 328 908 289 867 q 390 996 368 949 l 457 993 l 531 999 l 531 968 q 550 903 531 933 q 607 839 565 878 l 547 764 q 485 821 508 789 q 447 908 461 853 q 300 768 399 826 z "},"ë":{"ha":926,"x_min":-7,"x_max":865,"o":"m 151 -17 q 67 536 151 536 q 10 515 43 536 l -7 547 q 254 713 219 713 q 326 631 306 713 q 347 371 347 549 q 706 714 625 714 q 781 653 754 714 q 826 450 807 592 q 865 111 839 360 l 676 -17 q 560 447 638 447 q 396 331 490 447 q 197 -17 292 203 l 151 -17 m 472 -85 q 554 -158 500 -136 l 507 -194 q 428 -236 454 -236 q 351 -175 378 -236 l 472 -85 z "},"ì":{"ha":926,"x_min":-7,"x_max":865,"o":"m 151 -17 q 67 536 151 536 q 10 515 43 536 l -7 547 q 254 713 219 713 q 326 631 306 713 q 347 371 347 549 q 706 714 625 714 q 781 653 754 714 q 826 450 807 592 q 865 111 839 360 l 676 -17 q 560 447 638 447 q 396 331 490 447 q 197 -17 292 203 l 151 -17 m 532 968 q 614 894 560 917 l 567 858 q 488 817 514 817 q 411 878 438 817 l 532 968 z "},"í":{"ha":418,"x_min":8,"x_max":343,"o":"m 136 -17 l 138 144 q 72 538 138 538 q 14 524 46 538 l 8 556 l 149 656 q 200 690 178 676 q 265 717 242 717 q 343 392 343 717 l 343 361 l 343 333 l 343 308 l 343 286 l 343 267 l 343 249 l 343 232 q 342 174 343 200 q 342 128 342 149 l 342 113 l 136 -17 m 138 764 l 104 850 q 267 1001 199 914 l 342 879 q 246 813 294 840 q 138 764 197 785 z "},"î":{"ha":418,"x_min":8,"x_max":397,"o":"m 136 -17 l 138 144 q 72 538 138 538 q 14 524 46 538 l 8 556 l 149 656 q 200 690 178 676 q 265 717 242 717 q 343 392 343 717 l 343 361 l 343 333 l 343 308 l 343 286 l 343 267 l 343 249 l 343 232 q 342 174 343 200 q 342 128 342 149 l 342 113 l 136 -17 m 90 768 l 19 828 q 119 908 79 867 q 181 996 158 949 l 247 993 l 321 999 l 321 968 q 340 903 321 933 q 397 839 356 878 l 338 764 q 275 821 299 789 q 238 908 251 853 q 90 768 189 826 z "},"ï":{"ha":926,"x_min":-7,"x_max":865,"o":"m 151 -17 q 67 536 151 536 q 10 515 43 536 l -7 547 q 254 713 219 713 q 326 631 306 713 q 347 371 347 549 q 706 714 625 714 q 781 653 754 714 q 826 450 807 592 q 865 111 839 360 l 676 -17 q 560 447 638 447 q 396 331 490 447 q 197 -17 292 203 l 151 -17 m 311 793 l 236 875 q 390 968 338 968 q 454 943 414 968 q 519 918 494 918 q 633 969 561 918 l 696 892 q 538 792 613 792 q 458 821 513 792 q 411 836 429 836 q 354 818 388 836 q 311 793 332 806 z "},"ð":{"ha":793,"x_min":47,"x_max":757,"o":"m 276 615 l 100 515 l 63 610 q 117 629 108 625 q 194 664 138 638 q 113 719 139 696 q 88 767 88 742 q 250 879 88 804 l 349 924 l 369 899 q 332 842 332 871 q 388 757 332 807 q 572 864 483 800 l 624 768 q 538 736 585 756 q 458 703 500 721 q 675 572 567 638 q 757 411 757 508 q 719 281 757 346 q 601 143 681 217 q 440 24 515 64 q 304 -17 364 -17 q 125 65 203 -17 q 47 260 47 147 q 88 388 47 335 q 211 486 124 435 l 256 511 l 272 493 q 231 361 231 432 q 294 199 231 268 q 438 129 358 129 q 535 170 497 129 q 574 279 574 211 q 500 461 574 386 q 276 615 444 518 z "},"ñ":{"ha":604,"x_min":29,"x_max":569,"o":"m 197 265 l 196 251 q 237 160 196 197 q 342 124 278 124 q 414 172 414 124 q 354 253 414 222 q 199 301 317 272 q 81 349 115 322 q 40 432 40 379 q 222 633 40 511 q 318 692 285 676 q 403 714 364 714 q 509 683 463 714 q 556 614 556 653 q 514 556 556 585 l 400 475 q 358 546 400 515 q 263 576 315 576 q 210 546 210 576 q 375 433 210 475 q 514 389 482 407 q 569 290 569 357 q 533 192 569 238 q 431 97 508 160 q 346 33 374 53 q 203 -17 271 -17 q 82 26 135 -17 q 29 114 29 68 q 56 171 29 147 q 94 200 69 183 l 197 265 m 311 -85 q 393 -158 339 -136 l 346 -194 q 267 -236 293 -236 q 190 -175 217 -236 l 311 -85 z "},"ò":{"ha":793,"x_min":-26,"x_max":757,"o":"m 272 493 q 231 361 231 432 q 294 199 231 268 q 438 129 358 129 q 535 170 497 129 q 574 278 574 211 q 486 461 574 390 q 244 585 424 513 q 47 658 146 621 q -26 726 -26 689 q 29 801 -26 760 q 113 861 33 804 l 200 924 l 225 903 q 199 850 199 876 q 464 682 199 789 q 679 576 631 614 q 757 418 757 517 q 567 113 757 271 q 424 16 490 49 q 304 -17 358 -17 q 125 65 203 -17 q 47 260 47 147 q 88 388 47 335 q 211 486 124 435 l 256 511 l 272 493 m 417 -85 q 499 -158 444 -136 l 451 -194 q 372 -236 399 -236 q 296 -175 322 -236 l 417 -85 z "},"ó":{"ha":722,"x_min":33,"x_max":688,"o":"m 256 519 q 219 393 219 461 q 281 217 219 296 q 417 139 343 139 q 492 169 465 139 q 518 258 518 200 q 497 370 518 310 q 436 479 475 431 q 249 576 360 576 q 174 567 211 576 l 165 593 q 307 683 243 653 q 426 714 371 714 q 607 622 526 714 q 688 410 688 529 q 564 149 688 279 q 290 -14 410 -14 q 113 74 193 -14 q 33 272 33 163 q 83 410 33 347 q 233 539 125 461 l 256 519 m 308 764 l 275 850 q 438 1001 369 914 l 513 879 q 417 813 465 840 q 308 764 368 785 z "},"ô":{"ha":722,"x_min":33,"x_max":688,"o":"m 256 519 q 219 393 219 461 q 281 217 219 296 q 417 139 343 139 q 492 169 465 139 q 518 258 518 200 q 497 370 518 310 q 436 479 475 431 q 249 576 360 576 q 174 567 211 576 l 165 593 q 307 683 243 653 q 426 714 371 714 q 607 622 526 714 q 688 410 688 529 q 564 149 688 279 q 290 -14 410 -14 q 113 74 193 -14 q 33 272 33 163 q 83 410 33 347 q 233 539 125 461 l 256 519 m 261 768 l 190 828 q 290 908 250 867 q 351 996 329 949 l 418 993 l 492 999 l 492 968 q 511 903 492 933 q 568 839 526 878 l 508 764 q 446 821 469 789 q 408 908 422 853 q 261 768 360 826 z "},"õ":{"ha":722,"x_min":33,"x_max":688,"o":"m 256 519 q 219 393 219 461 q 281 217 219 296 q 417 139 343 139 q 492 169 465 139 q 518 258 518 200 q 497 370 518 310 q 436 479 475 431 q 249 576 360 576 q 174 567 211 576 l 165 593 q 307 683 243 653 q 426 714 371 714 q 607 622 526 714 q 688 410 688 529 q 564 149 688 279 q 290 -14 410 -14 q 113 74 193 -14 q 33 272 33 163 q 83 410 33 347 q 233 539 125 461 l 256 519 m 208 793 l 133 875 q 288 968 235 968 q 351 943 311 968 q 417 918 392 918 q 531 969 458 918 l 593 892 q 435 792 510 792 q 356 821 410 792 q 308 836 326 836 q 251 818 285 836 q 208 793 229 806 z "},"ö":{"ha":518,"x_min":-19,"x_max":564,"o":"m 358 685 l 443 683 l 564 686 l 407 533 l 349 535 q 346 445 349 507 q 343 382 343 383 q 413 129 343 129 q 449 142 425 129 l 468 107 l 336 24 q 243 -17 272 -17 q 143 247 143 -17 q 150 433 143 288 q 153 539 153 492 l -19 547 l 121 686 l 161 685 l 167 769 l 375 901 l 358 685 m 317 -85 q 399 -158 344 -136 l 351 -194 q 272 -236 299 -236 q 196 -175 222 -236 l 317 -85 z "},"÷":{"ha":1157,"x_min":172,"x_max":985,"o":"m 579 783 q 652 753 622 783 q 682 681 682 724 q 653 608 682 639 q 579 578 624 578 q 506 608 536 578 q 476 681 476 638 q 506 753 476 724 q 579 783 536 783 m 172 482 l 985 482 l 985 347 l 172 347 l 172 482 m 579 250 q 652 220 622 250 q 682 147 682 190 q 652 76 682 106 q 579 46 622 46 q 507 75 538 46 q 476 147 476 104 q 506 220 476 190 q 579 250 536 250 z "},"ø":{"ha":722,"x_min":35,"x_max":689,"o":"m 256 519 q 211 390 211 458 q 251 249 211 322 q 424 501 342 364 q 256 585 358 585 q 174 567 214 585 l 165 593 q 307 683 243 653 q 426 714 371 714 q 539 679 496 714 q 568 754 556 715 l 689 768 q 638 697 658 728 q 599 632 618 665 q 688 410 688 528 q 526 111 688 265 q 286 -15 393 -15 q 186 15 231 -15 q 169 -17 176 -3 q 154 -58 163 -32 l 35 -74 q 124 61 83 -7 q 35 275 35 163 q 85 410 35 346 q 233 539 129 465 l 256 519 m 468 446 q 381 318 425 386 q 299 186 349 271 q 407 132 357 132 q 491 170 457 132 q 525 265 525 208 q 468 446 525 349 z "},"ù":{"ha":872,"x_min":-53,"x_max":803,"o":"m 89 -12 q 104 375 104 156 q 33 975 104 975 q -35 947 8 975 l -53 979 l 126 1103 q 190 1143 165 1129 q 232 1157 214 1157 q 282 1101 271 1157 q 293 906 293 1044 l 293 743 q 290 503 293 642 q 286 356 286 364 q 665 714 568 714 q 771 569 739 714 q 803 108 803 425 l 621 -17 l 621 26 q 608 238 621 143 q 578 385 594 333 q 511 465 551 465 q 361 357 457 465 q 131 -17 193 167 l 89 -12 m 428 -85 q 510 -158 456 -136 l 463 -194 q 383 -236 410 -236 q 307 -175 333 -236 l 428 -85 z "},"ú":{"ha":890,"x_min":-3,"x_max":819,"o":"m 603 -28 q 601 169 603 74 q 599 360 600 265 q 239 -15 332 -15 q 158 90 178 -15 q 138 249 154 110 q 67 553 101 553 q 8 536 44 553 l -3 568 l 172 675 q 215 701 210 699 q 249 711 235 711 q 296 638 289 711 q 308 513 303 565 q 325 351 324 358 q 386 250 340 250 q 540 385 444 250 q 600 576 600 468 l 814 721 l 808 556 q 811 381 808 463 q 819 119 819 135 l 603 -28 m 418 764 l 385 850 q 547 1001 479 914 l 622 879 q 526 813 575 840 q 418 764 478 785 z "},"û":{"ha":890,"x_min":-3,"x_max":819,"o":"m 603 -28 q 601 169 603 74 q 599 360 600 265 q 239 -15 332 -15 q 158 90 178 -15 q 138 249 154 110 q 67 553 101 553 q 8 536 44 553 l -3 568 l 172 675 q 215 701 210 699 q 249 711 235 711 q 296 638 289 711 q 308 513 303 565 q 325 351 324 358 q 386 250 340 250 q 540 385 444 250 q 600 576 600 468 l 814 721 l 808 556 q 811 381 808 463 q 819 119 819 135 l 603 -28 m 371 768 l 300 828 q 399 908 360 867 q 461 996 439 949 l 528 993 l 601 999 l 601 968 q 621 903 601 933 q 678 839 636 878 l 618 764 q 556 821 579 789 q 518 908 532 853 q 371 768 469 826 z "},"ü":{"ha":890,"x_min":-3,"x_max":819,"o":"m 603 -28 q 601 169 603 74 q 599 360 600 265 q 239 -15 332 -15 q 158 90 178 -15 q 138 249 154 110 q 67 553 101 553 q 8 536 44 553 l -3 568 l 172 675 q 215 701 210 699 q 249 711 235 711 q 296 638 289 711 q 308 513 303 565 q 325 351 324 358 q 386 250 340 250 q 540 385 444 250 q 600 576 600 468 l 814 721 l 808 556 q 811 381 808 463 q 819 119 819 135 l 603 -28 m 681 918 l 653 825 q 563 828 625 825 q 500 831 501 831 q 447 830 457 831 q 319 817 436 829 l 353 904 q 439 903 393 904 q 538 901 485 903 q 618 904 596 901 q 681 918 640 907 z "},"ý":{"ha":881,"x_min":-7,"x_max":788,"o":"m 576 -324 q 581 -137 576 -246 q 590 185 590 115 l 586 313 q 289 -14 350 -14 q 204 81 229 -14 q 172 232 196 113 q 60 553 108 553 q 13 535 42 553 l -7 567 l 146 667 q 203 701 179 689 q 240 714 226 714 q 299 643 283 714 q 317 536 301 629 q 408 253 363 253 q 722 697 525 253 l 779 697 l 776 397 q 779 197 776 317 q 785 -46 782 76 q 788 -264 788 -168 l 576 -324 m 388 764 l 354 850 q 517 1001 449 914 l 592 879 q 496 813 544 840 q 388 764 447 785 z "},"þ":{"ha":829,"x_min":-37,"x_max":756,"o":"m 306 -264 l 108 -324 l 113 78 q 109 284 113 175 q 101 544 106 393 q 97 822 97 696 q 38 974 97 974 q -19 956 13 974 l -37 986 l 129 1100 q 186 1140 158 1121 q 236 1158 214 1158 q 289 1074 289 1158 q 292 896 289 979 q 301 557 301 604 q 560 714 500 714 q 663 660 621 714 q 731 538 706 607 q 756 399 756 468 q 669 197 756 281 q 396 44 583 114 l 381 85 q 511 168 471 122 q 551 288 551 214 q 506 474 551 397 q 399 551 460 551 q 300 385 300 551 l 301 299 l 306 -264 z "},"ÿ":{"ha":400,"x_min":-37,"x_max":314,"o":"m 129 1100 q 186 1140 158 1121 q 236 1158 214 1158 q 280 1132 271 1158 q 289 1039 289 1106 q 294 772 289 919 q 307 446 300 625 q 314 121 314 267 l 97 -17 q 101 190 97 60 q 106 375 106 321 q 38 974 106 974 q -19 956 14 974 l -37 986 l 129 1100 m 208 -85 q 290 -158 236 -136 l 243 -194 q 164 -236 190 -236 q 88 -175 114 -236 l 208 -85 z "},"˘":{"ha":694,"x_min":243,"x_max":576,"o":"m 374 958 l 368 921 q 422 851 368 851 q 483 877 451 851 q 538 950 515 903 l 576 929 q 501 807 554 850 q 375 764 449 764 q 278 794 314 764 q 243 874 243 824 q 261 935 243 907 l 374 958 z "},"˙":{"ha":694,"x_min":246,"x_max":517,"o":"m 407 982 q 517 885 444 915 l 454 836 q 349 781 382 781 q 246 863 281 781 l 407 982 z "},"ı":{"ha":418,"x_min":8,"x_max":343,"o":"m 136 -17 l 138 144 q 72 538 138 538 q 14 524 46 538 l 8 556 l 149 656 q 200 690 178 676 q 265 717 242 717 q 343 392 343 717 l 343 361 l 343 333 l 343 308 l 343 286 l 343 267 l 343 249 l 343 232 q 342 174 343 200 q 342 128 342 149 l 342 113 l 136 -17 z "},"˚":{"ha":694,"x_min":247,"x_max":513,"o":"m 356 764 q 279 792 311 764 q 247 856 247 819 q 303 940 247 900 q 414 979 360 979 q 483 953 454 979 q 513 889 513 926 q 461 803 513 842 q 356 764 410 764 m 336 918 q 322 882 322 894 q 428 824 322 824 l 436 861 q 417 904 436 886 q 368 922 397 922 l 336 918 z "},"˛":{"ha":694,"x_min":125,"x_max":379,"o":"m 336 21 q 231 -137 231 -62 q 290 -211 231 -211 q 358 -168 329 -211 l 379 -181 q 231 -289 326 -289 q 153 -262 181 -289 q 125 -192 125 -236 q 169 -83 125 -137 q 301 21 214 -29 l 336 21 z "},"ˇ":{"ha":694,"x_min":225,"x_max":601,"o":"m 532 994 l 601 935 q 503 855 544 897 q 442 767 463 813 l 374 769 l 301 764 l 301 794 q 284 857 301 829 q 225 924 267 885 l 285 999 q 345 942 321 975 q 383 854 369 908 q 444 930 410 897 q 532 994 479 963 z "},"Ł":{"ha":865,"x_min":25,"x_max":867,"o":"m 867 201 l 674 0 q 410 11 549 11 q 169 0 274 11 q 174 189 169 60 q 179 369 179 318 l 25 257 l 39 433 q 178 525 100 469 q 117 853 178 853 q 69 839 96 853 l 57 868 l 197 965 q 322 1032 294 1032 q 381 946 381 1032 l 381 649 q 486 722 450 697 q 604 804 583 790 l 593 628 l 378 489 l 378 178 l 493 176 q 678 182 586 176 q 867 201 771 188 z "},"ł":{"ha":419,"x_min":-28,"x_max":436,"o":"m 139 1100 q 196 1140 168 1121 q 246 1158 224 1158 q 297 1117 285 1158 q 308 969 308 1076 q 307 796 308 875 q 304 644 306 717 q 436 744 375 693 l 428 586 l 308 507 q 318 271 308 453 q 324 121 324 167 l 107 -17 q 111 186 107 65 q 115 347 115 307 l 114 418 q 43 368 78 393 q -18 319 29 358 l -10 478 q 63 524 38 507 q 113 560 88 542 l 113 626 q 47 974 113 974 q -10 956 24 974 l -28 986 l 139 1100 z "},"∕":{"ha":232,"x_min":-232,"x_max":463,"o":"m -232 -82 q -31 239 -149 47 q 162 559 61 388 q 340 865 263 731 l 463 885 q 186 464 329 700 q -107 -62 39 219 l -232 -82 z "},"":{"ha":974,"x_min":-26,"x_max":879,"o":"m 403 124 l 190 -17 q 186 196 190 88 q 174 564 174 519 l -26 564 l 121 715 l 174 715 q 194 860 174 803 q 269 975 215 918 q 436 1112 354 1064 q 581 1160 518 1160 q 728 1115 656 1160 q 849 989 801 1069 l 656 864 q 569 981 626 938 q 453 1024 511 1024 q 386 972 406 1024 q 367 800 367 919 l 371 717 q 434 715 390 717 q 503 714 478 714 q 674 715 618 714 q 775 718 731 717 q 858 672 839 718 q 876 486 876 626 l 875 278 l 879 113 l 672 -17 q 674 145 672 74 q 676 282 675 217 l 676 386 q 672 500 676 463 q 649 554 667 538 q 614 568 636 565 q 556 571 592 571 l 375 567 l 375 538 q 380 378 375 468 q 403 124 385 288 z "},"":{"ha":971,"x_min":-26,"x_max":875,"o":"m 579 725 l 456 571 l 375 567 l 375 538 q 380 378 375 468 q 403 124 385 288 l 190 -17 q 186 196 190 88 q 174 564 174 519 l -26 564 l 121 715 l 174 715 q 194 860 174 803 q 268 974 214 917 q 585 1160 446 1160 q 711 1135 640 1160 q 861 1061 782 1111 l 860 913 q 863 646 860 767 q 871 376 867 525 q 875 133 875 228 l 658 -17 q 661 204 658 85 q 668 488 664 324 q 672 768 672 653 q 666 899 672 860 q 632 958 660 938 q 541 1003 596 985 q 449 1022 486 1022 q 384 970 401 1022 q 367 792 367 918 l 371 717 l 579 725 z "},"Ž":{"ha":836,"x_min":33,"x_max":833,"o":"m 646 -8 q 577 -15 608 -14 q 507 -17 546 -17 q 149 7 247 -17 q 33 113 33 35 q 56 193 33 154 q 118 276 71 221 q 194 363 131 292 q 319 501 299 479 q 494 692 388 576 l 556 757 q 274 740 431 740 q 106 754 157 740 q 54 811 54 768 q 100 899 54 853 l 239 1038 l 269 1019 l 265 1006 q 438 960 265 960 q 667 965 578 960 q 815 979 757 971 l 833 950 q 444 488 572 657 q 315 267 315 319 q 460 194 315 194 q 811 224 656 194 l 829 201 l 646 -8 m 603 1300 l 672 1240 q 574 1160 615 1203 q 513 1072 533 1118 l 444 1075 l 372 1069 l 372 1100 q 355 1163 372 1135 q 296 1229 338 1190 l 356 1304 q 416 1247 392 1281 q 454 1160 440 1214 q 515 1235 481 1203 q 603 1300 550 1268 z "},"ž":{"ha":663,"x_min":44,"x_max":642,"o":"m 451 -4 q 395 -12 429 -8 q 343 -17 361 -17 q 56 82 56 -17 q 92 165 56 113 q 197 292 129 217 q 372 475 242 339 l 301 474 q 44 540 44 474 q 240 721 44 585 l 268 706 q 261 682 261 694 q 356 654 261 654 q 453 658 400 654 q 593 675 507 663 l 610 639 q 429 442 436 450 q 314 302 353 357 q 275 218 275 247 q 389 169 275 169 q 642 196 504 169 l 451 -4 m 517 994 l 586 935 q 488 855 529 897 q 426 767 447 813 l 358 769 l 286 764 l 286 794 q 269 857 286 829 q 210 924 251 885 l 269 999 q 330 942 306 975 q 368 854 354 908 q 429 930 394 897 q 517 994 464 963 z "}}}
